<?xml version="1.0" encoding="utf-8" standalone="no"?>
<!DOCTYPE svg PUBLIC "-//W3C//DTD SVG 1.1//EN"
  "http://www.w3.org/Graphics/SVG/1.1/DTD/svg11.dtd">
<svg xmlns:xlink="http://www.w3.org/1999/xlink" width="603.682813pt" height="339.040763pt" viewBox="0 0 603.682813 339.040763" xmlns="http://www.w3.org/2000/svg" version="1.1">
 <metadata>
  <rdf:RDF xmlns:dc="http://purl.org/dc/elements/1.1/" xmlns:cc="http://creativecommons.org/ns#" xmlns:rdf="http://www.w3.org/1999/02/22-rdf-syntax-ns#">
   <cc:Work>
    <dc:type rdf:resource="http://purl.org/dc/dcmitype/StillImage"/>
    <dc:date>2025-12-20T11:33:16.201630</dc:date>
    <dc:format>image/svg+xml</dc:format>
    <dc:creator>
     <cc:Agent>
      <dc:title>Matplotlib v3.10.7, https://matplotlib.org/</dc:title>
     </cc:Agent>
    </dc:creator>
   </cc:Work>
  </rdf:RDF>
 </metadata>
 <defs>
  <style type="text/css">*{stroke-linejoin: round; stroke-linecap: butt}</style>
 </defs>
 <g id="figure_1">
  <g id="patch_1">
   <path d="M 0 339.040763 
L 603.682813 339.040763 
L 603.682813 0 
L 0 0 
z
" style="fill: #ffffff"/>
  </g>
  <g id="axes_1">
   <g id="patch_2">
    <path d="M 38.482813 111.882638 
L 596.482813 111.882638 
L 596.482813 10.242638 
L 38.482813 10.242638 
z
" style="fill: #ffffff"/>
   </g>
   <g id="matplotlib.axis_1">
    <g id="xtick_1">
     <g id="line2d_1">
      <path d="M 38.482813 111.882638 
L 38.482813 10.242638 
" clip-path="url(#p2ab1c9094c)" style="fill: none; stroke: #b0b0b0; stroke-width: 0.8; stroke-linecap: square"/>
     </g>
     <g id="line2d_2">
      <defs>
       <path id="m3fdb8398fe" d="M 0 0 
L 0 3.5 
" style="stroke: #000000; stroke-width: 0.8"/>
      </defs>
      <g>
       <use xlink:href="#m3fdb8398fe" x="38.482813" y="111.882638" style="stroke: #000000; stroke-width: 0.8"/>
      </g>
     </g>
    </g>
    <g id="xtick_2">
     <g id="line2d_3">
      <path d="M 118.254078 111.882638 
L 118.254078 10.242638 
" clip-path="url(#p2ab1c9094c)" style="fill: none; stroke: #b0b0b0; stroke-width: 0.8; stroke-linecap: square"/>
     </g>
     <g id="line2d_4">
      <g>
       <use xlink:href="#m3fdb8398fe" x="118.254078" y="111.882638" style="stroke: #000000; stroke-width: 0.8"/>
      </g>
     </g>
    </g>
    <g id="xtick_3">
     <g id="line2d_5">
      <path d="M 198.025343 111.882638 
L 198.025343 10.242638 
" clip-path="url(#p2ab1c9094c)" style="fill: none; stroke: #b0b0b0; stroke-width: 0.8; stroke-linecap: square"/>
     </g>
     <g id="line2d_6">
      <g>
       <use xlink:href="#m3fdb8398fe" x="198.025343" y="111.882638" style="stroke: #000000; stroke-width: 0.8"/>
      </g>
     </g>
    </g>
    <g id="xtick_4">
     <g id="line2d_7">
      <path d="M 277.796608 111.882638 
L 277.796608 10.242638 
" clip-path="url(#p2ab1c9094c)" style="fill: none; stroke: #b0b0b0; stroke-width: 0.8; stroke-linecap: square"/>
     </g>
     <g id="line2d_8">
      <g>
       <use xlink:href="#m3fdb8398fe" x="277.796608" y="111.882638" style="stroke: #000000; stroke-width: 0.8"/>
      </g>
     </g>
    </g>
    <g id="xtick_5">
     <g id="line2d_9">
      <path d="M 357.567873 111.882638 
L 357.567873 10.242638 
" clip-path="url(#p2ab1c9094c)" style="fill: none; stroke: #b0b0b0; stroke-width: 0.8; stroke-linecap: square"/>
     </g>
     <g id="line2d_10">
      <g>
       <use xlink:href="#m3fdb8398fe" x="357.567873" y="111.882638" style="stroke: #000000; stroke-width: 0.8"/>
      </g>
     </g>
    </g>
    <g id="xtick_6">
     <g id="line2d_11">
      <path d="M 437.339138 111.882638 
L 437.339138 10.242638 
" clip-path="url(#p2ab1c9094c)" style="fill: none; stroke: #b0b0b0; stroke-width: 0.8; stroke-linecap: square"/>
     </g>
     <g id="line2d_12">
      <g>
       <use xlink:href="#m3fdb8398fe" x="437.339138" y="111.882638" style="stroke: #000000; stroke-width: 0.8"/>
      </g>
     </g>
    </g>
    <g id="xtick_7">
     <g id="line2d_13">
      <path d="M 517.110404 111.882638 
L 517.110404 10.242638 
" clip-path="url(#p2ab1c9094c)" style="fill: none; stroke: #b0b0b0; stroke-width: 0.8; stroke-linecap: square"/>
     </g>
     <g id="line2d_14">
      <g>
       <use xlink:href="#m3fdb8398fe" x="517.110404" y="111.882638" style="stroke: #000000; stroke-width: 0.8"/>
      </g>
     </g>
    </g>
   </g>
   <g id="matplotlib.axis_2">
    <g id="ytick_1">
     <g id="line2d_15">
      <path d="M 38.482813 87.678754 
L 596.482813 87.678754 
" clip-path="url(#p2ab1c9094c)" style="fill: none; stroke: #b0b0b0; stroke-width: 0.8; stroke-linecap: square"/>
     </g>
     <g id="line2d_16">
      <defs>
       <path id="m311238d34d" d="M 0 0 
L -3.5 0 
" style="stroke: #000000; stroke-width: 0.8"/>
      </defs>
      <g>
       <use xlink:href="#m311238d34d" x="38.482813" y="87.678754" style="stroke: #000000; stroke-width: 0.8"/>
      </g>
     </g>
     <g id="text_1">
      <!-- −0.2 -->
      <g transform="translate(7.2 91.477973) scale(0.1 -0.1)">
       <defs>
        <path id="DejaVuSans-2212" d="M 678 2272 
L 4684 2272 
L 4684 1741 
L 678 1741 
L 678 2272 
z
" transform="scale(0.015625)"/>
        <path id="DejaVuSans-30" d="M 2034 4250 
Q 1547 4250 1301 3770 
Q 1056 3291 1056 2328 
Q 1056 1369 1301 889 
Q 1547 409 2034 409 
Q 2525 409 2770 889 
Q 3016 1369 3016 2328 
Q 3016 3291 2770 3770 
Q 2525 4250 2034 4250 
z
M 2034 4750 
Q 2819 4750 3233 4129 
Q 3647 3509 3647 2328 
Q 3647 1150 3233 529 
Q 2819 -91 2034 -91 
Q 1250 -91 836 529 
Q 422 1150 422 2328 
Q 422 3509 836 4129 
Q 1250 4750 2034 4750 
z
" transform="scale(0.015625)"/>
        <path id="DejaVuSans-2e" d="M 684 794 
L 1344 794 
L 1344 0 
L 684 0 
L 684 794 
z
" transform="scale(0.015625)"/>
        <path id="DejaVuSans-32" d="M 1228 531 
L 3431 531 
L 3431 0 
L 469 0 
L 469 531 
Q 828 903 1448 1529 
Q 2069 2156 2228 2338 
Q 2531 2678 2651 2914 
Q 2772 3150 2772 3378 
Q 2772 3750 2511 3984 
Q 2250 4219 1831 4219 
Q 1534 4219 1204 4116 
Q 875 4013 500 3803 
L 500 4441 
Q 881 4594 1212 4672 
Q 1544 4750 1819 4750 
Q 2544 4750 2975 4387 
Q 3406 4025 3406 3419 
Q 3406 3131 3298 2873 
Q 3191 2616 2906 2266 
Q 2828 2175 2409 1742 
Q 1991 1309 1228 531 
z
" transform="scale(0.015625)"/>
       </defs>
       <use xlink:href="#DejaVuSans-2212"/>
       <use xlink:href="#DejaVuSans-30" transform="translate(83.789062 0)"/>
       <use xlink:href="#DejaVuSans-2e" transform="translate(147.412109 0)"/>
       <use xlink:href="#DejaVuSans-32" transform="translate(179.199219 0)"/>
      </g>
     </g>
    </g>
    <g id="ytick_2">
     <g id="line2d_17">
      <path d="M 38.482813 62.118909 
L 596.482813 62.118909 
" clip-path="url(#p2ab1c9094c)" style="fill: none; stroke: #b0b0b0; stroke-width: 0.8; stroke-linecap: square"/>
     </g>
     <g id="line2d_18">
      <g>
       <use xlink:href="#m311238d34d" x="38.482813" y="62.118909" style="stroke: #000000; stroke-width: 0.8"/>
      </g>
     </g>
     <g id="text_2">
      <!-- 0.0 -->
      <g transform="translate(15.579688 65.918128) scale(0.1 -0.1)">
       <use xlink:href="#DejaVuSans-30"/>
       <use xlink:href="#DejaVuSans-2e" transform="translate(63.623047 0)"/>
       <use xlink:href="#DejaVuSans-30" transform="translate(95.410156 0)"/>
      </g>
     </g>
    </g>
    <g id="ytick_3">
     <g id="line2d_19">
      <path d="M 38.482813 36.559064 
L 596.482813 36.559064 
" clip-path="url(#p2ab1c9094c)" style="fill: none; stroke: #b0b0b0; stroke-width: 0.8; stroke-linecap: square"/>
     </g>
     <g id="line2d_20">
      <g>
       <use xlink:href="#m311238d34d" x="38.482813" y="36.559064" style="stroke: #000000; stroke-width: 0.8"/>
      </g>
     </g>
     <g id="text_3">
      <!-- 0.2 -->
      <g transform="translate(15.579688 40.358283) scale(0.1 -0.1)">
       <use xlink:href="#DejaVuSans-30"/>
       <use xlink:href="#DejaVuSans-2e" transform="translate(63.623047 0)"/>
       <use xlink:href="#DejaVuSans-32" transform="translate(95.410156 0)"/>
      </g>
     </g>
    </g>
    <g id="ytick_4">
     <g id="line2d_21">
      <path d="M 38.482813 10.999219 
L 596.482813 10.999219 
" clip-path="url(#p2ab1c9094c)" style="fill: none; stroke: #b0b0b0; stroke-width: 0.8; stroke-linecap: square"/>
     </g>
     <g id="line2d_22">
      <g>
       <use xlink:href="#m311238d34d" x="38.482813" y="10.999219" style="stroke: #000000; stroke-width: 0.8"/>
      </g>
     </g>
     <g id="text_4">
      <!-- 0.4 -->
      <g transform="translate(15.579688 14.798437) scale(0.1 -0.1)">
       <defs>
        <path id="DejaVuSans-34" d="M 2419 4116 
L 825 1625 
L 2419 1625 
L 2419 4116 
z
M 2253 4666 
L 3047 4666 
L 3047 1625 
L 3713 1625 
L 3713 1100 
L 3047 1100 
L 3047 0 
L 2419 0 
L 2419 1100 
L 313 1100 
L 313 1709 
L 2253 4666 
z
" transform="scale(0.015625)"/>
       </defs>
       <use xlink:href="#DejaVuSans-30"/>
       <use xlink:href="#DejaVuSans-2e" transform="translate(63.623047 0)"/>
       <use xlink:href="#DejaVuSans-34" transform="translate(95.410156 0)"/>
      </g>
     </g>
    </g>
   </g>
   <g id="line2d_23">
    <path d="M 38.482813 62.118909 
L 147.769446 62.131419 
L 148.567158 61.881235 
L 150.162584 61.835151 
L 150.960296 61.250863 
L 151.359153 61.144522 
L 151.758009 61.182992 
L 152.156865 61.064065 
L 152.555722 61.112717 
L 152.954578 60.452746 
L 153.353434 61.212066 
L 153.752291 63.130584 
L 154.151147 62.13704 
L 154.550003 61.61653 
L 154.94886 61.581481 
L 155.347716 61.989469 
L 155.746572 62.039177 
L 156.145429 62.449292 
L 156.544285 63.211552 
L 156.943141 62.442505 
L 157.740854 61.813984 
L 158.538567 62.219905 
L 158.937423 61.467141 
L 159.336279 62.019436 
L 159.735136 62.983536 
L 160.133992 62.525979 
L 160.532848 63.130051 
L 161.330561 62.412157 
L 161.729417 62.504298 
L 162.128274 62.834908 
L 162.925986 62.644258 
L 163.324843 62.925964 
L 163.723699 61.071815 
L 164.122555 61.068093 
L 164.521411 61.881885 
L 164.920268 61.994196 
L 165.319124 61.889499 
L 165.71798 61.373021 
L 166.116837 62.042182 
L 166.515693 62.252747 
L 166.914549 62.211278 
L 167.313406 61.925946 
L 167.712262 62.218913 
L 168.111118 63.110009 
L 168.908831 62.337438 
L 170.1054 62.18694 
L 170.504256 61.60068 
L 170.903113 61.541211 
L 171.700825 62.497794 
L 172.099682 62.39125 
L 172.498538 62.605972 
L 172.897394 62.663825 
L 173.296251 61.841996 
L 173.695107 61.512531 
L 174.49282 62.057228 
L 174.891676 62.607777 
L 175.290532 62.749322 
L 175.689389 62.403582 
L 176.088245 62.402021 
L 176.487101 62.605715 
L 177.284814 61.348267 
L 177.68367 62.000754 
L 178.082527 62.411321 
L 178.481383 62.413832 
L 178.880239 62.530978 
L 179.279096 63.329517 
L 179.677952 63.483682 
L 180.076808 62.614856 
L 180.475665 62.170225 
L 181.273377 62.87363 
L 181.672234 62.128133 
L 182.07109 62.358488 
L 182.469946 62.781098 
L 182.868802 61.619813 
L 183.267659 61.719415 
L 183.666515 62.771163 
L 184.065371 62.260128 
L 184.464228 62.433341 
L 184.863084 63.115199 
L 185.26194 62.600484 
L 185.660797 62.268172 
L 186.458509 62.828563 
L 186.857366 62.561411 
L 187.256222 61.975213 
L 187.655078 62.110386 
L 188.053935 62.491948 
L 188.452791 61.992906 
L 188.851647 61.817358 
L 189.250504 61.07814 
L 189.64936 61.296891 
L 190.048216 62.114207 
L 190.447073 62.215442 
L 191.244785 61.277541 
L 192.042498 61.998782 
L 192.441354 61.714398 
L 193.239067 62.290507 
L 193.637923 61.913988 
L 194.03678 61.846808 
L 194.435636 61.468896 
L 194.834492 61.661792 
L 195.632205 61.72246 
L 196.031061 62.162439 
L 196.429918 61.140025 
L 196.828774 61.242308 
L 197.22763 61.957127 
L 197.626487 61.510139 
L 198.025343 61.776267 
L 198.424199 61.870266 
L 198.823056 61.561711 
L 199.221912 62.049638 
L 199.620768 61.797853 
L 200.019625 61.752984 
L 200.418481 62.01814 
L 200.817337 61.672247 
L 201.216193 62.326289 
L 201.61505 62.384029 
L 202.013906 61.859576 
L 202.811619 61.852767 
L 203.609331 62.015239 
L 204.407044 62.389355 
L 205.204757 61.971388 
L 205.603613 62.232444 
L 206.002469 62.111203 
L 206.401326 62.351255 
L 206.800182 62.941683 
L 207.199038 62.811627 
L 207.597895 62.310242 
L 207.996751 62.668347 
L 208.395607 62.498912 
L 208.794464 62.100402 
L 209.19332 62.031708 
L 209.991033 63.085489 
L 210.389889 62.37233 
L 210.788745 62.186583 
L 211.187602 62.849129 
L 211.985314 61.938463 
L 212.384171 62.682799 
L 213.181883 62.073285 
L 213.58074 62.34377 
L 213.979596 62.390152 
L 214.378452 61.933445 
L 214.777309 61.853998 
L 215.176165 62.251653 
L 215.575021 62.222431 
L 215.973878 61.806487 
L 216.372734 61.774867 
L 216.77159 62.093211 
L 217.569303 61.704244 
L 217.968159 61.870238 
L 218.765872 61.774644 
L 219.563584 61.247933 
L 219.962441 61.648403 
L 220.361297 61.677042 
L 220.760153 61.479996 
L 221.15901 61.997407 
L 221.557866 61.903743 
L 221.956722 61.645068 
L 222.355579 61.754233 
L 222.754435 61.329409 
L 223.153291 61.636692 
L 223.552148 62.248478 
L 223.951004 62.188073 
L 224.34986 61.800525 
L 224.748717 61.618542 
L 225.147573 61.874514 
L 225.546429 61.668297 
L 226.344142 62.768288 
L 226.742998 62.232996 
L 227.141855 62.015882 
L 227.540711 62.278625 
L 227.939567 62.687372 
L 228.338424 62.747528 
L 229.136136 62.494593 
L 229.534993 62.598506 
L 229.933849 62.516038 
L 230.332705 62.122592 
L 230.731562 61.891805 
L 231.130418 61.514674 
L 232.326987 62.082453 
L 233.523556 62.460916 
L 233.922412 62.270473 
L 234.321269 62.749729 
L 234.720125 63.00428 
L 235.118981 62.83255 
L 235.517838 63.101123 
L 235.916694 63.171441 
L 236.714406 62.813177 
L 237.113263 63.281438 
L 237.512119 62.635018 
L 237.910975 62.235327 
L 238.309832 66.017866 
L 238.708688 65.435251 
L 239.506401 62.313809 
L 239.905257 60.064644 
L 240.304113 60.946173 
L 240.70297 60.306657 
L 241.101826 60.494324 
L 241.500682 61.862341 
L 241.899539 61.564754 
L 242.298395 61.042878 
L 243.096108 61.035704 
L 243.494964 61.222948 
L 243.89382 61.83995 
L 244.292677 61.940961 
L 245.090389 61.334392 
L 245.888102 59.869751 
L 246.286958 59.921066 
L 246.685815 61.131603 
L 247.084671 62.861963 
L 247.882384 65.176848 
L 248.680096 65.221334 
L 249.078953 65.310684 
L 249.477809 65.94135 
L 249.876665 64.509447 
L 250.674378 58.995169 
L 251.073234 57.430655 
L 251.472091 62.941465 
L 251.870947 62.626075 
L 252.269803 60.677247 
L 252.66866 61.62263 
L 253.067516 60.491544 
L 253.466372 61.339261 
L 253.865229 61.260258 
L 254.264085 60.239292 
L 254.662941 60.182932 
L 255.061797 61.933839 
L 255.460654 63.053273 
L 255.85951 63.647184 
L 256.258366 65.179764 
L 256.657223 65.041385 
L 257.056079 65.316628 
L 257.454935 63.923556 
L 257.853792 63.322915 
L 258.252648 62.020743 
L 258.651504 61.475649 
L 259.050361 60.716442 
L 259.449217 56.857975 
L 259.848073 67.257279 
L 260.24693 56.864785 
L 260.645786 52.103752 
L 261.044642 74.283442 
L 261.842355 55.626832 
L 262.241211 65.697956 
L 262.640068 70.270352 
L 263.038924 63.268017 
L 263.43778 63.438926 
L 263.836637 66.085433 
L 264.235493 57.9196 
L 264.634349 58.732638 
L 265.033206 66.797933 
L 265.432062 59.176203 
L 265.830918 57.841403 
L 266.229775 67.925967 
L 266.628631 66.230379 
L 267.027487 51.637196 
L 267.426344 53.502143 
L 267.8252 68.952712 
L 268.224056 64.073287 
L 268.622913 67.200561 
L 269.021769 38.468567 
L 269.420625 41.970558 
L 269.819482 71.862829 
L 270.218338 69.954835 
L 270.617194 75.04969 
L 271.414907 48.748165 
L 271.813763 55.890575 
L 272.21262 72.311848 
L 272.611476 59.257493 
L 273.010332 53.423459 
L 273.409188 70.463809 
L 273.808045 75.075629 
L 274.206901 58.22659 
L 274.605757 59.691029 
L 275.004614 69.335638 
L 275.802326 38.334084 
L 276.201183 58.644863 
L 276.600039 87.47329 
L 276.998895 76.595128 
L 277.397752 61.093968 
L 277.796608 39.542902 
L 278.195464 47.601876 
L 278.594321 45.956472 
L 278.993177 46.329776 
L 279.392033 72.895125 
L 279.79089 80.596009 
L 280.189746 79.646491 
L 280.588602 62.695525 
L 280.987459 53.406503 
L 281.386315 85.945294 
L 281.785171 68.706394 
L 282.184028 42.924984 
L 282.582884 62.824669 
L 282.98174 59.137645 
L 283.380597 67.652311 
L 284.178309 27.807365 
L 284.577166 56.924066 
L 284.976022 77.765011 
L 285.374878 66.750381 
L 285.773735 51.792024 
L 286.172591 58.446213 
L 286.970304 92.691161 
L 287.36916 88.043345 
L 287.768016 71.926714 
L 288.166873 49.29952 
L 288.565729 43.156678 
L 288.964585 56.808948 
L 289.363442 77.085164 
L 290.161154 22.738683 
L 290.56001 62.323573 
L 290.958867 80.816896 
L 291.357723 69.883189 
L 291.756579 80.826109 
L 292.155436 63.675099 
L 292.554292 54.466148 
L 292.953148 99.738683 
L 293.352005 57.14747 
L 293.750861 39.710645 
L 294.149717 56.493675 
L 294.548574 53.295225 
L 294.94743 62.68049 
L 295.346286 62.316978 
L 295.745143 99.281523 
L 296.143999 99.078618 
L 296.542855 44.301223 
L 296.941712 38.539067 
L 297.340568 48.646801 
L 297.739424 44.163815 
L 298.537137 91.523151 
L 298.935993 65.751819 
L 299.733706 71.748768 
L 300.132562 54.88633 
L 300.531419 54.893521 
L 300.930275 56.254393 
L 301.329131 71.063581 
L 301.727988 55.294453 
L 302.126844 48.590639 
L 302.5257 85.989304 
L 302.924557 71.367688 
L 303.323413 43.150146 
L 303.722269 74.191902 
L 304.121126 69.663327 
L 304.519982 46.751453 
L 304.918838 71.334279 
L 305.716551 40.450282 
L 306.115407 72.159373 
L 306.514264 80.047568 
L 307.311976 52.490102 
L 307.710833 69.522481 
L 308.109689 73.663927 
L 308.508545 34.628963 
L 309.306258 68.34744 
L 309.705114 53.301834 
L 310.10397 65.31369 
L 310.502827 84.690993 
L 311.300539 33.686809 
L 311.699396 63.659216 
L 312.098252 77.224473 
L 312.895965 40.453377 
L 313.693677 73.520198 
L 314.092534 58.569703 
L 314.49139 57.446689 
L 314.890246 68.767283 
L 315.289103 51.852829 
L 315.687959 56.014249 
L 316.086815 64.00716 
L 316.485672 45.415107 
L 316.884528 45.018105 
L 317.283384 72.43815 
L 317.682241 80.788688 
L 318.479953 48.219189 
L 318.87881 53.087269 
L 319.277666 77.664458 
L 319.676522 59.344605 
L 320.075379 57.202926 
L 320.474235 76.193223 
L 320.873091 53.681327 
L 321.271948 54.213997 
L 321.670804 76.780704 
L 322.06966 66.124837 
L 322.468517 49.29964 
L 323.266229 64.880713 
L 323.665086 58.726175 
L 324.063942 54.489474 
L 324.462798 74.25987 
L 324.861655 80.091894 
L 325.260511 71.775607 
L 325.659367 68.338436 
L 326.058224 67.708133 
L 326.45708 75.485936 
L 326.855936 67.422784 
L 327.653649 77.789038 
L 328.052505 63.507903 
L 328.451361 66.63021 
L 328.850218 64.577701 
L 329.249074 60.945578 
L 329.64793 63.119023 
L 330.046787 56.568519 
L 330.445643 55.764726 
L 330.844499 62.289612 
L 331.243356 63.420206 
L 331.642212 69.088035 
L 332.041068 68.574092 
L 332.439925 60.277501 
L 332.838781 55.939478 
L 333.237637 58.192097 
L 333.636494 63.105112 
L 334.434206 55.633174 
L 334.833063 56.813459 
L 335.231919 55.54066 
L 335.630775 52.823763 
L 336.029632 52.39441 
L 336.428488 53.841593 
L 336.827344 49.794985 
L 337.226201 55.037203 
L 337.625057 57.624094 
L 338.023913 52.129117 
L 338.42277 61.176953 
L 338.821626 60.48187 
L 339.220482 51.30351 
L 339.619339 51.439117 
L 340.417051 58.247968 
L 340.815908 62.803699 
L 341.214764 65.25073 
L 341.61362 62.246256 
L 342.012477 61.425608 
L 342.411333 68.47956 
L 342.810189 69.558688 
L 343.209046 65.636133 
L 343.607902 71.537408 
L 344.006758 72.773885 
L 344.405615 68.366119 
L 344.804471 71.581842 
L 345.203327 71.619415 
L 346.00104 66.843918 
L 346.399896 67.392567 
L 347.197609 70.03565 
L 347.596465 74.040128 
L 347.995321 69.965707 
L 348.394178 60.601519 
L 349.19189 66.092515 
L 349.590747 59.472465 
L 349.989603 61.541439 
L 350.388459 61.874675 
L 350.787316 55.129506 
L 351.186172 58.23381 
L 351.585028 58.605307 
L 351.983885 54.082427 
L 352.781597 57.89388 
L 353.180454 54.818928 
L 353.57931 55.114592 
L 353.978166 58.94693 
L 354.377023 56.437252 
L 354.775879 51.78281 
L 355.573592 58.384916 
L 355.972448 58.898151 
L 356.371304 63.955794 
L 356.770161 61.964334 
L 357.169017 58.956254 
L 357.567873 64.808533 
L 357.96673 65.361595 
L 358.365586 64.284218 
L 358.764442 66.74662 
L 359.163299 67.043725 
L 359.562155 66.389698 
L 360.359868 67.575415 
L 360.758724 67.949994 
L 361.15758 66.719295 
L 361.556437 67.179912 
L 361.955293 67.294404 
L 362.354149 65.937449 
L 362.753005 66.545744 
L 363.151862 62.075934 
L 363.550718 59.566528 
L 363.949574 62.238389 
L 364.348431 61.625221 
L 365.146143 58.805563 
L 365.545 57.223032 
L 365.943856 58.172383 
L 366.342712 58.01052 
L 366.741569 57.144503 
L 367.140425 57.67948 
L 367.539281 56.625508 
L 367.938138 57.617697 
L 368.336994 58.038205 
L 368.73585 58.276676 
L 369.134707 60.825755 
L 369.533563 60.33917 
L 369.932419 61.392111 
L 370.331276 63.683649 
L 370.730132 63.93114 
L 371.128988 64.481362 
L 371.527845 64.325208 
L 371.926701 65.236488 
L 372.325557 67.583807 
L 372.724414 66.744273 
L 373.12327 66.354808 
L 373.522126 66.951652 
L 373.920983 66.644127 
L 374.319839 67.460916 
L 374.718695 65.611168 
L 375.117552 64.576527 
L 375.516408 64.696988 
L 375.915264 62.865337 
L 376.712977 61.536581 
L 377.111833 60.421635 
L 377.51069 60.056074 
L 377.909546 58.632721 
L 378.707259 58.465008 
L 379.106115 56.939611 
L 379.504971 57.646823 
L 379.903828 57.425545 
L 380.302684 57.666265 
L 380.70154 58.621515 
L 381.100396 58.405917 
L 381.499253 60.070493 
L 381.898109 60.804812 
L 382.296965 61.180273 
L 382.695822 62.569487 
L 383.094678 63.08752 
L 383.493534 64.207729 
L 383.892391 64.896783 
L 384.291247 65.144944 
L 384.690103 66.406574 
L 385.08896 66.180719 
L 385.487816 66.496785 
L 385.886672 66.664276 
L 386.285529 65.909601 
L 386.684385 65.983638 
L 387.083241 64.942405 
L 387.880954 63.78391 
L 388.27981 62.583193 
L 388.678667 61.91221 
L 389.476379 60.124508 
L 389.875236 59.558108 
L 390.274092 58.656742 
L 391.470661 57.904418 
L 391.869517 58.247788 
L 392.268374 58.309068 
L 393.863799 61.103996 
L 396.256937 65.527394 
L 396.655793 65.875337 
L 397.05465 66.033834 
L 397.852362 65.792418 
L 398.650075 64.82981 
L 399.447787 63.3555 
L 401.442069 59.43208 
L 402.239782 58.581002 
L 402.638638 58.38643 
L 403.037494 58.412257 
L 403.436351 58.616909 
L 403.835207 58.989292 
L 404.63292 60.178311 
L 407.424914 65.239684 
L 407.82377 65.57096 
L 408.222627 65.713336 
L 408.621483 65.660555 
L 409.020339 65.433403 
L 409.818052 64.486678 
L 410.615765 63.05388 
L 412.21119 59.946579 
L 413.008903 58.956212 
L 413.407759 58.707078 
L 413.806615 58.639497 
L 414.205472 58.754879 
L 414.604328 59.048347 
L 415.402041 60.120433 
L 418.194035 65.03897 
L 418.592891 65.361162 
L 418.991747 65.505733 
L 419.390604 65.460965 
L 419.78946 65.226766 
L 420.587173 64.245859 
L 421.783742 62.019265 
L 422.980311 59.871098 
L 423.778023 59.006455 
L 424.17688 58.838467 
L 424.575736 58.86447 
L 424.974592 59.07986 
L 425.772305 60.004777 
L 426.968874 62.176579 
L 428.165443 64.313765 
L 428.963156 65.140743 
L 429.362012 65.29446 
L 429.760868 65.261922 
L 430.159725 65.045229 
L 430.957437 64.111678 
L 432.154006 61.934442 
L 433.350575 59.892329 
L 434.148288 59.142838 
L 434.547144 59.034253 
L 434.946 59.117669 
L 435.344857 59.38599 
L 436.142569 60.39603 
L 438.535707 64.480163 
L 438.934564 64.861337 
L 439.33342 65.066997 
L 439.732276 65.08645 
L 440.131133 64.917862 
L 440.529989 64.573156 
L 441.327702 63.451237 
L 443.321983 60.029145 
L 443.72084 59.595069 
L 444.119696 59.325699 
L 444.518552 59.240147 
L 444.917409 59.342203 
L 445.316265 59.625489 
L 446.113978 60.649282 
L 448.507116 64.492041 
L 448.905972 64.788772 
L 449.304828 64.906083 
L 449.703685 64.834745 
L 450.102541 64.581607 
L 450.900254 63.608523 
L 453.293391 59.828782 
L 453.692248 59.535563 
L 454.091104 59.422578 
L 454.48996 59.496256 
L 454.888817 59.752328 
L 455.686529 60.725099 
L 457.680811 63.974713 
L 458.079667 64.396406 
L 458.478524 64.65361 
L 458.87738 64.729526 
L 459.276236 64.618463 
L 459.675093 64.329434 
L 460.472805 63.310765 
L 462.467087 60.167995 
L 462.865943 59.80738 
L 463.2648 59.617297 
L 463.663656 59.612441 
L 464.062512 59.791768 
L 464.860225 60.637707 
L 467.253363 64.205923 
L 467.652219 64.473019 
L 468.051076 64.559832 
L 468.449932 64.461383 
L 468.848788 64.184437 
L 469.646501 63.195044 
L 471.640782 60.207704 
L 472.039639 59.897469 
L 472.438495 59.762421 
L 472.837351 59.811775 
L 473.236208 60.042351 
L 474.03392 60.95829 
L 476.028202 63.91089 
L 476.427058 64.232644 
L 476.825915 64.381675 
L 477.224771 64.347322 
L 477.623627 64.131209 
L 478.42134 63.242504 
L 480.415622 60.360301 
L 480.814478 60.056235 
L 481.213334 59.926371 
L 481.612191 59.980349 
L 482.011047 60.214423 
L 482.80876 61.125361 
L 484.404185 63.4819 
L 485.201898 64.140016 
L 485.600754 64.215129 
L 485.99961 64.10894 
L 486.398467 63.830279 
L 487.196179 62.863846 
L 488.791604 60.598225 
L 489.190461 60.262745 
L 489.589317 60.096914 
L 489.988173 60.117012 
L 490.38703 60.320747 
L 491.184742 61.182541 
L 492.780168 63.41046 
L 493.179024 63.770382 
L 493.57788 63.972645 
L 493.976737 64.003128 
L 494.375593 63.860256 
L 495.173306 63.12607 
L 497.167587 60.571308 
L 497.566444 60.320898 
L 497.9653 60.245275 
L 498.364156 60.355529 
L 498.763013 60.645557 
L 499.560725 61.642752 
L 500.757294 63.365732 
L 501.156151 63.74742 
L 501.555007 63.946377 
L 501.953863 63.939039 
L 502.35272 63.724456 
L 503.150432 62.798176 
L 504.347001 61.072818 
L 504.745858 60.682626 
L 505.144714 60.472307 
L 505.54357 60.46164 
L 505.942427 60.646626 
L 506.740139 61.464899 
L 507.936708 62.936457 
L 508.335564 63.25191 
L 508.734421 63.412445 
L 509.133277 63.408039 
L 509.532133 63.248148 
L 510.329846 62.596182 
L 511.526415 61.501794 
L 512.324128 61.1797 
L 513.12184 61.318789 
L 514.318409 62.052375 
L 515.116122 62.509634 
L 515.913835 62.707218 
L 516.711547 62.607961 
L 519.503542 61.751508 
L 520.700111 61.889316 
L 522.694392 62.283409 
L 523.890961 62.272444 
L 527.081812 62.006735 
L 533.064657 62.09594 
L 537.850933 62.117357 
L 596.482813 62.134634 
L 596.482813 62.134634 
" clip-path="url(#p2ab1c9094c)" style="fill: none; stroke: #000000; stroke-width: 0.5; stroke-linecap: square"/>
   </g>
   <g id="LineCollection_1">
    <path d="M 148.152075 103.588683 
L 148.152075 18.888683 
" clip-path="url(#p2ab1c9094c)" style="fill: none; stroke: #0000ff; stroke-width: 1.5"/>
   </g>
   <g id="LineCollection_2">
    <path d="M 229.035211 103.588683 
L 229.035211 18.888683 
" clip-path="url(#p2ab1c9094c)" style="fill: none; stroke: #ff0000; stroke-width: 1.5"/>
   </g>
   <g id="patch_3">
    <path d="M 38.482813 111.882638 
L 38.482813 10.242638 
" style="fill: none; stroke: #000000; stroke-width: 0.8; stroke-linejoin: miter; stroke-linecap: square"/>
   </g>
   <g id="patch_4">
    <path d="M 596.482813 111.882638 
L 596.482813 10.242638 
" style="fill: none; stroke: #000000; stroke-width: 0.8; stroke-linejoin: miter; stroke-linecap: square"/>
   </g>
   <g id="patch_5">
    <path d="M 38.482813 111.882638 
L 596.482813 111.882638 
" style="fill: none; stroke: #000000; stroke-width: 0.8; stroke-linejoin: miter; stroke-linecap: square"/>
   </g>
   <g id="patch_6">
    <path d="M 38.482813 10.242638 
L 596.482813 10.242638 
" style="fill: none; stroke: #000000; stroke-width: 0.8; stroke-linejoin: miter; stroke-linecap: square"/>
   </g>
   <g id="text_5">
    <!-- P -->
    <g style="fill: #0000ff" transform="translate(148.152075 26.487121) scale(0.1 -0.1)">
     <defs>
      <path id="DejaVuSans-50" d="M 1259 4147 
L 1259 2394 
L 2053 2394 
Q 2494 2394 2734 2622 
Q 2975 2850 2975 3272 
Q 2975 3691 2734 3919 
Q 2494 4147 2053 4147 
L 1259 4147 
z
M 628 4666 
L 2053 4666 
Q 2838 4666 3239 4311 
Q 3641 3956 3641 3272 
Q 3641 2581 3239 2228 
Q 2838 1875 2053 1875 
L 1259 1875 
L 1259 0 
L 628 0 
L 628 4666 
z
" transform="scale(0.015625)"/>
     </defs>
     <use xlink:href="#DejaVuSans-50"/>
    </g>
   </g>
   <g id="text_6">
    <!-- S -->
    <g style="fill: #ff0000" transform="translate(229.035211 26.487121) scale(0.1 -0.1)">
     <defs>
      <path id="DejaVuSans-53" d="M 3425 4513 
L 3425 3897 
Q 3066 4069 2747 4153 
Q 2428 4238 2131 4238 
Q 1616 4238 1336 4038 
Q 1056 3838 1056 3469 
Q 1056 3159 1242 3001 
Q 1428 2844 1947 2747 
L 2328 2669 
Q 3034 2534 3370 2195 
Q 3706 1856 3706 1288 
Q 3706 609 3251 259 
Q 2797 -91 1919 -91 
Q 1588 -91 1214 -16 
Q 841 59 441 206 
L 441 856 
Q 825 641 1194 531 
Q 1563 422 1919 422 
Q 2459 422 2753 634 
Q 3047 847 3047 1241 
Q 3047 1584 2836 1778 
Q 2625 1972 2144 2069 
L 1759 2144 
Q 1053 2284 737 2584 
Q 422 2884 422 3419 
Q 422 4038 858 4394 
Q 1294 4750 2059 4750 
Q 2388 4750 2728 4690 
Q 3069 4631 3425 4513 
z
" transform="scale(0.015625)"/>
     </defs>
     <use xlink:href="#DejaVuSans-53"/>
    </g>
   </g>
   <g id="legend_1">
    <g id="patch_7">
     <path d="M 45.482813 32.920763 
L 84.43125 32.920763 
Q 86.43125 32.920763 86.43125 30.920763 
L 86.43125 17.242638 
Q 86.43125 15.242638 84.43125 15.242638 
L 45.482813 15.242638 
Q 43.482813 15.242638 43.482813 17.242638 
L 43.482813 30.920763 
Q 43.482813 32.920763 45.482813 32.920763 
z
" style="fill: #ffffff; opacity: 0.8; stroke: #cccccc; stroke-linejoin: miter"/>
    </g>
    <g id="line2d_24">
     <path d="M 47.482813 23.341075 
L 57.482813 23.341075 
L 67.482813 23.341075 
" style="fill: none; stroke: #000000; stroke-width: 0.5; stroke-linecap: square"/>
    </g>
    <g id="text_7">
     <!-- R -->
     <g transform="translate(75.482813 26.841075) scale(0.1 -0.1)">
      <defs>
       <path id="DejaVuSans-52" d="M 2841 2188 
Q 3044 2119 3236 1894 
Q 3428 1669 3622 1275 
L 4263 0 
L 3584 0 
L 2988 1197 
Q 2756 1666 2539 1819 
Q 2322 1972 1947 1972 
L 1259 1972 
L 1259 0 
L 628 0 
L 628 4666 
L 2053 4666 
Q 2853 4666 3247 4331 
Q 3641 3997 3641 3322 
Q 3641 2881 3436 2590 
Q 3231 2300 2841 2188 
z
M 1259 4147 
L 1259 2491 
L 2053 2491 
Q 2509 2491 2742 2702 
Q 2975 2913 2975 3322 
Q 2975 3731 2742 3939 
Q 2509 4147 2053 4147 
L 1259 4147 
z
" transform="scale(0.015625)"/>
      </defs>
      <use xlink:href="#DejaVuSans-52"/>
     </g>
    </g>
   </g>
  </g>
  <g id="axes_2">
   <g id="patch_8">
    <path d="M 38.482813 213.522638 
L 596.482813 213.522638 
L 596.482813 111.882638 
L 38.482813 111.882638 
z
" style="fill: #ffffff"/>
   </g>
   <g id="matplotlib.axis_3">
    <g id="xtick_8">
     <g id="line2d_25">
      <path d="M 38.482813 213.522638 
L 38.482813 111.882638 
" clip-path="url(#pc67b7de611)" style="fill: none; stroke: #b0b0b0; stroke-width: 0.8; stroke-linecap: square"/>
     </g>
     <g id="line2d_26">
      <g>
       <use xlink:href="#m3fdb8398fe" x="38.482813" y="213.522638" style="stroke: #000000; stroke-width: 0.8"/>
      </g>
     </g>
    </g>
    <g id="xtick_9">
     <g id="line2d_27">
      <path d="M 118.254078 213.522638 
L 118.254078 111.882638 
" clip-path="url(#pc67b7de611)" style="fill: none; stroke: #b0b0b0; stroke-width: 0.8; stroke-linecap: square"/>
     </g>
     <g id="line2d_28">
      <g>
       <use xlink:href="#m3fdb8398fe" x="118.254078" y="213.522638" style="stroke: #000000; stroke-width: 0.8"/>
      </g>
     </g>
    </g>
    <g id="xtick_10">
     <g id="line2d_29">
      <path d="M 198.025343 213.522638 
L 198.025343 111.882638 
" clip-path="url(#pc67b7de611)" style="fill: none; stroke: #b0b0b0; stroke-width: 0.8; stroke-linecap: square"/>
     </g>
     <g id="line2d_30">
      <g>
       <use xlink:href="#m3fdb8398fe" x="198.025343" y="213.522638" style="stroke: #000000; stroke-width: 0.8"/>
      </g>
     </g>
    </g>
    <g id="xtick_11">
     <g id="line2d_31">
      <path d="M 277.796608 213.522638 
L 277.796608 111.882638 
" clip-path="url(#pc67b7de611)" style="fill: none; stroke: #b0b0b0; stroke-width: 0.8; stroke-linecap: square"/>
     </g>
     <g id="line2d_32">
      <g>
       <use xlink:href="#m3fdb8398fe" x="277.796608" y="213.522638" style="stroke: #000000; stroke-width: 0.8"/>
      </g>
     </g>
    </g>
    <g id="xtick_12">
     <g id="line2d_33">
      <path d="M 357.567873 213.522638 
L 357.567873 111.882638 
" clip-path="url(#pc67b7de611)" style="fill: none; stroke: #b0b0b0; stroke-width: 0.8; stroke-linecap: square"/>
     </g>
     <g id="line2d_34">
      <g>
       <use xlink:href="#m3fdb8398fe" x="357.567873" y="213.522638" style="stroke: #000000; stroke-width: 0.8"/>
      </g>
     </g>
    </g>
    <g id="xtick_13">
     <g id="line2d_35">
      <path d="M 437.339138 213.522638 
L 437.339138 111.882638 
" clip-path="url(#pc67b7de611)" style="fill: none; stroke: #b0b0b0; stroke-width: 0.8; stroke-linecap: square"/>
     </g>
     <g id="line2d_36">
      <g>
       <use xlink:href="#m3fdb8398fe" x="437.339138" y="213.522638" style="stroke: #000000; stroke-width: 0.8"/>
      </g>
     </g>
    </g>
    <g id="xtick_14">
     <g id="line2d_37">
      <path d="M 517.110404 213.522638 
L 517.110404 111.882638 
" clip-path="url(#pc67b7de611)" style="fill: none; stroke: #b0b0b0; stroke-width: 0.8; stroke-linecap: square"/>
     </g>
     <g id="line2d_38">
      <g>
       <use xlink:href="#m3fdb8398fe" x="517.110404" y="213.522638" style="stroke: #000000; stroke-width: 0.8"/>
      </g>
     </g>
    </g>
   </g>
   <g id="matplotlib.axis_4">
    <g id="ytick_5">
     <g id="line2d_39">
      <path d="M 38.482813 212.502124 
L 596.482813 212.502124 
" clip-path="url(#pc67b7de611)" style="fill: none; stroke: #b0b0b0; stroke-width: 0.8; stroke-linecap: square"/>
     </g>
     <g id="line2d_40">
      <g>
       <use xlink:href="#m311238d34d" x="38.482813" y="212.502124" style="stroke: #000000; stroke-width: 0.8"/>
      </g>
     </g>
     <g id="text_8">
      <!-- −0.2 -->
      <g transform="translate(7.2 216.301342) scale(0.1 -0.1)">
       <use xlink:href="#DejaVuSans-2212"/>
       <use xlink:href="#DejaVuSans-30" transform="translate(83.789062 0)"/>
       <use xlink:href="#DejaVuSans-2e" transform="translate(147.412109 0)"/>
       <use xlink:href="#DejaVuSans-32" transform="translate(179.199219 0)"/>
      </g>
     </g>
    </g>
    <g id="ytick_6">
     <g id="line2d_41">
      <path d="M 38.482813 186.549259 
L 596.482813 186.549259 
" clip-path="url(#pc67b7de611)" style="fill: none; stroke: #b0b0b0; stroke-width: 0.8; stroke-linecap: square"/>
     </g>
     <g id="line2d_42">
      <g>
       <use xlink:href="#m311238d34d" x="38.482813" y="186.549259" style="stroke: #000000; stroke-width: 0.8"/>
      </g>
     </g>
     <g id="text_9">
      <!-- −0.1 -->
      <g transform="translate(7.2 190.348477) scale(0.1 -0.1)">
       <defs>
        <path id="DejaVuSans-31" d="M 794 531 
L 1825 531 
L 1825 4091 
L 703 3866 
L 703 4441 
L 1819 4666 
L 2450 4666 
L 2450 531 
L 3481 531 
L 3481 0 
L 794 0 
L 794 531 
z
" transform="scale(0.015625)"/>
       </defs>
       <use xlink:href="#DejaVuSans-2212"/>
       <use xlink:href="#DejaVuSans-30" transform="translate(83.789062 0)"/>
       <use xlink:href="#DejaVuSans-2e" transform="translate(147.412109 0)"/>
       <use xlink:href="#DejaVuSans-31" transform="translate(179.199219 0)"/>
      </g>
     </g>
    </g>
    <g id="ytick_7">
     <g id="line2d_43">
      <path d="M 38.482813 160.596394 
L 596.482813 160.596394 
" clip-path="url(#pc67b7de611)" style="fill: none; stroke: #b0b0b0; stroke-width: 0.8; stroke-linecap: square"/>
     </g>
     <g id="line2d_44">
      <g>
       <use xlink:href="#m311238d34d" x="38.482813" y="160.596394" style="stroke: #000000; stroke-width: 0.8"/>
      </g>
     </g>
     <g id="text_10">
      <!-- 0.0 -->
      <g transform="translate(15.579688 164.395612) scale(0.1 -0.1)">
       <use xlink:href="#DejaVuSans-30"/>
       <use xlink:href="#DejaVuSans-2e" transform="translate(63.623047 0)"/>
       <use xlink:href="#DejaVuSans-30" transform="translate(95.410156 0)"/>
      </g>
     </g>
    </g>
    <g id="ytick_8">
     <g id="line2d_45">
      <path d="M 38.482813 134.643529 
L 596.482813 134.643529 
" clip-path="url(#pc67b7de611)" style="fill: none; stroke: #b0b0b0; stroke-width: 0.8; stroke-linecap: square"/>
     </g>
     <g id="line2d_46">
      <g>
       <use xlink:href="#m311238d34d" x="38.482813" y="134.643529" style="stroke: #000000; stroke-width: 0.8"/>
      </g>
     </g>
     <g id="text_11">
      <!-- 0.1 -->
      <g transform="translate(15.579688 138.442747) scale(0.1 -0.1)">
       <use xlink:href="#DejaVuSans-30"/>
       <use xlink:href="#DejaVuSans-2e" transform="translate(63.623047 0)"/>
       <use xlink:href="#DejaVuSans-31" transform="translate(95.410156 0)"/>
      </g>
     </g>
    </g>
   </g>
   <g id="line2d_47">
    <path d="M 38.482813 160.596394 
L 152.555722 160.525387 
L 156.943141 160.510934 
L 172.897394 160.585458 
L 200.817337 160.557227 
L 209.592176 160.590523 
L 219.962441 160.578224 
L 224.34986 160.545289 
L 227.141855 160.57431 
L 228.338424 160.51882 
L 228.73728 160.736618 
L 229.136136 161.9352 
L 229.534993 162.670755 
L 229.933849 162.425604 
L 231.130418 162.322508 
L 231.529274 162.197732 
L 231.928131 162.298843 
L 232.326987 162.081603 
L 232.725843 162.236701 
L 233.1247 161.753093 
L 233.523556 163.77083 
L 233.922412 168.470041 
L 234.321269 169.620927 
L 234.720125 168.555183 
L 235.118981 168.591632 
L 235.517838 168.053892 
L 235.916694 168.509393 
L 236.31555 168.091893 
L 236.714406 169.34128 
L 237.113263 168.527309 
L 237.512119 173.356464 
L 237.910975 176.784439 
L 238.309832 135.757275 
L 238.708688 133.588003 
L 239.107544 157.649225 
L 239.506401 156.956303 
L 239.905257 157.980707 
L 240.304113 155.703791 
L 240.70297 155.616398 
L 241.101826 156.005613 
L 241.500682 157.433849 
L 241.899539 156.896102 
L 242.298395 157.053861 
L 242.697251 157.465755 
L 243.096108 158.333991 
L 243.494964 158.578694 
L 243.89382 159.56174 
L 244.691533 160.730197 
L 245.090389 160.773282 
L 245.489246 161.966446 
L 245.888102 164.049719 
L 246.685815 154.844015 
L 247.084671 155.848134 
L 247.483527 155.914648 
L 247.882384 154.653532 
L 248.28124 154.756582 
L 248.680096 151.210834 
L 249.078953 154.127779 
L 249.477809 143.382399 
L 249.876665 164.370837 
L 250.275522 197.693607 
L 250.674378 172.912226 
L 251.073234 161.053717 
L 251.472091 162.320643 
L 251.870947 161.956183 
L 252.269803 162.075445 
L 252.66866 162.957363 
L 253.466372 159.146317 
L 253.865229 161.715763 
L 254.264085 163.013907 
L 254.662941 162.622407 
L 255.061797 158.997604 
L 255.460654 164.51485 
L 255.85951 166.6795 
L 256.258366 145.71804 
L 256.657223 145.343705 
L 257.056079 154.708634 
L 257.454935 153.535013 
L 257.853792 153.478982 
L 258.252648 154.083175 
L 258.651504 155.507358 
L 259.050361 156.146819 
L 259.449217 158.022277 
L 259.848073 157.36623 
L 260.24693 155.722273 
L 260.645786 159.454802 
L 261.044642 160.579525 
L 261.443499 157.516217 
L 261.842355 158.369286 
L 262.241211 162.656095 
L 262.640068 168.808606 
L 263.038924 168.055002 
L 263.836637 160.568351 
L 264.235493 160.388265 
L 264.634349 159.285109 
L 265.033206 158.904686 
L 265.432062 158.110997 
L 265.830918 155.059909 
L 266.229775 154.583414 
L 266.628631 153.780433 
L 267.027487 153.958247 
L 267.426344 149.09177 
L 267.8252 152.227694 
L 268.224056 166.356697 
L 268.622913 163.390499 
L 269.021769 156.754077 
L 269.420625 160.788784 
L 269.819482 158.827382 
L 270.617194 151.547208 
L 271.414907 165.624485 
L 271.813763 161.142108 
L 272.21262 167.043984 
L 272.611476 166.919679 
L 273.010332 163.358039 
L 273.409188 161.943653 
L 274.206901 152.356046 
L 274.605757 155.793421 
L 275.004614 166.021789 
L 275.40347 161.018732 
L 275.802326 160.808929 
L 276.201183 168.289566 
L 276.600039 164.661724 
L 276.998895 163.616847 
L 277.397752 167.588597 
L 277.796608 166.641054 
L 278.195464 170.208489 
L 278.594321 164.384385 
L 278.993177 171.317113 
L 279.392033 175.968091 
L 279.79089 154.014681 
L 280.189746 149.003376 
L 280.588602 155.42031 
L 280.987459 155.673781 
L 281.386315 157.820385 
L 281.785171 171.357565 
L 282.184028 163.959885 
L 282.582884 152.143957 
L 283.380597 170.389577 
L 283.779453 165.5526 
L 284.178309 155.356083 
L 284.976022 167.729916 
L 285.374878 171.415146 
L 285.773735 169.344517 
L 286.172591 158.644849 
L 286.970304 177.528986 
L 287.36916 175.216056 
L 287.768016 174.44071 
L 288.166873 175.366065 
L 288.565729 173.73856 
L 288.964585 167.128906 
L 289.363442 152.667068 
L 289.762298 151.209958 
L 290.161154 157.948952 
L 290.56001 148.89229 
L 290.958867 146.022454 
L 291.357723 159.270531 
L 291.756579 161.768495 
L 292.155436 167.578053 
L 292.554292 170.392174 
L 293.352005 172.649319 
L 293.750861 175.369235 
L 294.149717 148.896852 
L 294.548574 143.852627 
L 294.94743 172.970301 
L 295.346286 175.983412 
L 295.745143 167.823409 
L 296.143999 145.437304 
L 296.941712 123.851597 
L 297.340568 133.805017 
L 297.739424 164.055726 
L 298.537137 180.823306 
L 298.935993 165.757101 
L 299.33485 158.289982 
L 299.733706 172.166984 
L 300.132562 165.846413 
L 300.531419 152.720979 
L 300.930275 149.585725 
L 301.329131 141.715783 
L 301.727988 144.14618 
L 302.126844 169.642527 
L 302.5257 170.266116 
L 303.323413 131.748392 
L 303.722269 144.442866 
L 304.121126 163.956365 
L 304.519982 150.741 
L 304.918838 130.304397 
L 305.317695 147.043512 
L 305.716551 152.809526 
L 306.115407 167.891809 
L 306.514264 174.37893 
L 306.91312 165.209824 
L 307.311976 165.609458 
L 307.710833 168.721814 
L 308.109689 175.571336 
L 308.508545 153.39105 
L 309.306258 124.164765 
L 309.705114 134.039409 
L 310.10397 169.145157 
L 310.502827 164.775092 
L 310.901683 165.099966 
L 311.300539 192.213144 
L 312.098252 155.05251 
L 312.497108 151.088235 
L 312.895965 143.923129 
L 313.693677 191.921555 
L 314.092534 181.545177 
L 314.49139 166.277923 
L 314.890246 145.730949 
L 315.289103 138.61978 
L 315.687959 178.882732 
L 316.086815 188.915605 
L 316.485672 184.069167 
L 316.884528 160.29848 
L 317.283384 129.524025 
L 318.081097 197.839994 
L 318.479953 158.977086 
L 318.87881 161.042331 
L 319.277666 200.851597 
L 319.676522 181.338778 
L 320.075379 142.861259 
L 320.474235 149.298776 
L 320.873091 178.000161 
L 321.271948 159.395566 
L 322.06966 176.614372 
L 322.468517 162.811485 
L 322.867373 160.514741 
L 323.266229 161.718933 
L 323.665086 164.543669 
L 324.462798 173.70852 
L 324.861655 138.029969 
L 325.659367 179.103764 
L 326.45708 149.94019 
L 326.855936 142.706302 
L 327.254792 145.972574 
L 327.653649 168.615641 
L 328.052505 156.026679 
L 328.451361 138.736592 
L 328.850218 155.804505 
L 329.249074 156.465634 
L 329.64793 176.784955 
L 330.046787 139.06739 
L 330.445643 134.446689 
L 330.844499 170.366272 
L 331.243356 154.947109 
L 331.642212 144.119649 
L 332.439925 153.246091 
L 332.838781 142.445023 
L 333.237637 144.893341 
L 333.636494 157.717718 
L 334.03535 151.450786 
L 334.434206 149.032409 
L 334.833063 162.178023 
L 335.231919 163.126115 
L 335.630775 154.418286 
L 336.029632 164.20368 
L 336.428488 163.218869 
L 336.827344 150.152144 
L 337.625057 165.664257 
L 338.023913 164.589015 
L 338.42277 154.499248 
L 339.220482 169.056492 
L 339.619339 159.327254 
L 340.018195 165.828641 
L 340.417051 174.751846 
L 340.815908 169.549109 
L 341.214764 172.329265 
L 341.61362 177.319591 
L 342.012477 175.404712 
L 342.411333 169.035651 
L 342.810189 169.446779 
L 343.607902 164.209077 
L 344.006758 166.735636 
L 344.405615 172.647744 
L 344.804471 170.707511 
L 345.203327 167.214146 
L 345.602183 168.715827 
L 346.00104 168.716536 
L 346.399896 167.225505 
L 346.798752 169.463525 
L 347.197609 170.494514 
L 347.596465 167.086133 
L 347.995321 161.993863 
L 348.394178 158.344165 
L 348.793034 156.734812 
L 349.19189 154.250128 
L 349.590747 153.010764 
L 349.989603 152.688168 
L 350.388459 153.305941 
L 351.186172 158.645484 
L 351.585028 155.843649 
L 351.983885 151.480689 
L 352.382741 150.054789 
L 353.180454 152.605402 
L 353.57931 151.694863 
L 354.377023 145.443843 
L 354.775879 145.045086 
L 355.174735 146.544378 
L 355.573592 148.929951 
L 355.972448 153.933586 
L 356.371304 156.421354 
L 356.770161 157.111385 
L 357.169017 159.519686 
L 357.567873 160.516835 
L 357.96673 159.944188 
L 358.365586 158.135765 
L 358.764442 157.117468 
L 359.163299 159.411959 
L 359.562155 163.510251 
L 359.961011 165.001313 
L 360.359868 163.552973 
L 360.758724 162.848504 
L 361.15758 166.438861 
L 361.556437 172.283949 
L 361.955293 175.707072 
L 362.354149 175.17092 
L 362.753005 173.935177 
L 363.151862 174.11824 
L 363.949574 168.316137 
L 364.747287 166.797178 
L 365.146143 168.562763 
L 365.545 169.579258 
L 365.943856 167.80116 
L 366.342712 166.660591 
L 366.741569 167.401027 
L 367.140425 167.286017 
L 367.938138 163.808803 
L 368.336994 162.459345 
L 368.73585 158.522453 
L 369.134707 152.696842 
L 369.533563 149.65775 
L 370.331276 152.430234 
L 370.730132 150.967421 
L 371.527845 153.646935 
L 371.926701 152.099615 
L 372.325557 151.532323 
L 372.724414 150.535319 
L 373.12327 150.67642 
L 373.522126 151.130633 
L 373.920983 149.671824 
L 374.319839 147.544276 
L 374.718695 148.360967 
L 375.516408 154.597416 
L 375.915264 157.160131 
L 376.712977 163.845189 
L 377.111833 164.332187 
L 377.51069 162.631935 
L 377.909546 163.472654 
L 378.308402 166.046037 
L 378.707259 165.572305 
L 379.106115 165.684533 
L 380.302684 170.41454 
L 380.70154 172.52309 
L 381.100396 173.990564 
L 381.499253 174.61244 
L 381.898109 174.39787 
L 383.094678 166.496889 
L 383.493534 165.977822 
L 383.892391 164.713236 
L 384.291247 162.739628 
L 384.690103 162.758775 
L 385.08896 162.591669 
L 385.487816 161.020297 
L 386.285529 159.562268 
L 387.880954 148.510287 
L 388.27981 148.030572 
L 389.077523 149.579466 
L 389.476379 150.217225 
L 390.274092 152.464297 
L 390.672948 152.704747 
L 391.071805 153.129827 
L 391.470661 153.90999 
L 391.869517 153.897224 
L 392.268374 154.164389 
L 392.66723 155.786542 
L 393.066086 158.111797 
L 394.262655 166.92712 
L 394.661512 168.323635 
L 395.060368 169.268121 
L 395.459224 169.714816 
L 396.256937 169.782333 
L 396.655793 169.961728 
L 397.05465 170.000213 
L 397.453506 170.227602 
L 397.852362 170.932016 
L 398.251219 171.362781 
L 398.650075 170.948918 
L 399.048931 169.536433 
L 401.043213 157.925904 
L 401.840925 155.55149 
L 403.436351 151.497238 
L 404.234063 148.79348 
L 404.63292 148.376417 
L 405.031776 148.94859 
L 405.430632 150.374901 
L 407.026058 157.539081 
L 409.020339 165.233405 
L 410.216908 171.113047 
L 410.615765 171.937504 
L 411.014621 171.93997 
L 411.413477 171.34498 
L 412.610046 168.575362 
L 413.407759 166.218165 
L 414.205472 163.060233 
L 415.003184 158.472549 
L 415.800897 153.869006 
L 416.199753 152.337068 
L 416.598609 151.399573 
L 416.997466 150.890991 
L 417.795178 150.435776 
L 418.194035 150.498078 
L 418.592891 150.903858 
L 418.991747 151.694028 
L 419.390604 152.909113 
L 420.188316 156.71437 
L 421.384885 163.509428 
L 422.182598 166.800034 
L 422.980311 169.439257 
L 423.379167 170.413914 
L 423.778023 170.934014 
L 424.17688 170.92425 
L 424.575736 170.38575 
L 424.974592 169.347468 
L 425.772305 166.063374 
L 428.564299 152.468638 
L 428.963156 151.424101 
L 429.362012 150.878746 
L 429.760868 150.819501 
L 430.159725 151.245523 
L 430.558581 152.152493 
L 431.356294 155.207873 
L 432.552863 161.593283 
L 433.350575 165.738627 
L 434.148288 168.578909 
L 434.547144 169.293353 
L 434.946 169.468324 
L 435.344857 169.081157 
L 435.743713 168.147547 
L 436.541426 164.94938 
L 438.535707 155.229557 
L 438.934564 154.166959 
L 439.33342 153.651226 
L 439.732276 153.699052 
L 440.131133 154.284515 
L 440.529989 155.32754 
L 441.327702 158.284465 
L 442.125414 161.389788 
L 442.923127 163.585396 
L 443.321983 164.153717 
L 443.72084 164.351374 
L 444.119696 164.21644 
L 444.518552 163.804048 
L 445.316265 162.485329 
L 446.512834 160.405771 
L 447.310547 159.549829 
L 447.709403 159.332863 
L 448.507116 159.276914 
L 449.304828 159.574235 
L 451.29911 160.613751 
L 452.495679 160.897794 
L 453.692248 160.890299 
L 458.079667 160.494907 
L 469.646501 160.602554 
L 497.9653 160.588041 
L 507.537852 160.581805 
L 524.688674 160.608498 
L 565.770875 160.62389 
L 591.696537 160.616676 
L 596.482813 160.612782 
L 596.482813 160.612782 
" clip-path="url(#pc67b7de611)" style="fill: none; stroke: #000000; stroke-width: 0.5; stroke-linecap: square"/>
   </g>
   <g id="LineCollection_3">
    <path d="M 148.152075 204.701597 
L 148.152075 120.001597 
" clip-path="url(#pc67b7de611)" style="fill: none; stroke: #0000ff; stroke-width: 1.5"/>
   </g>
   <g id="LineCollection_4">
    <path d="M 229.035211 204.701597 
L 229.035211 120.001597 
" clip-path="url(#pc67b7de611)" style="fill: none; stroke: #ff0000; stroke-width: 1.5"/>
   </g>
   <g id="patch_9">
    <path d="M 38.482813 213.522638 
L 38.482813 111.882638 
" style="fill: none; stroke: #000000; stroke-width: 0.8; stroke-linejoin: miter; stroke-linecap: square"/>
   </g>
   <g id="patch_10">
    <path d="M 596.482813 213.522638 
L 596.482813 111.882638 
" style="fill: none; stroke: #000000; stroke-width: 0.8; stroke-linejoin: miter; stroke-linecap: square"/>
   </g>
   <g id="patch_11">
    <path d="M 38.482813 213.522638 
L 596.482813 213.522638 
" style="fill: none; stroke: #000000; stroke-width: 0.8; stroke-linejoin: miter; stroke-linecap: square"/>
   </g>
   <g id="patch_12">
    <path d="M 38.482813 111.882638 
L 596.482813 111.882638 
" style="fill: none; stroke: #000000; stroke-width: 0.8; stroke-linejoin: miter; stroke-linecap: square"/>
   </g>
   <g id="text_12">
    <!-- P -->
    <g style="fill: #0000ff" transform="translate(148.152075 127.600035) scale(0.1 -0.1)">
     <use xlink:href="#DejaVuSans-50"/>
    </g>
   </g>
   <g id="text_13">
    <!-- S -->
    <g style="fill: #ff0000" transform="translate(229.035211 127.600035) scale(0.1 -0.1)">
     <use xlink:href="#DejaVuSans-53"/>
    </g>
   </g>
   <g id="legend_2">
    <g id="patch_13">
     <path d="M 45.482813 134.560763 
L 83.590625 134.560763 
Q 85.590625 134.560763 85.590625 132.560763 
L 85.590625 118.882638 
Q 85.590625 116.882638 83.590625 116.882638 
L 45.482813 116.882638 
Q 43.482813 116.882638 43.482813 118.882638 
L 43.482813 132.560763 
Q 43.482813 134.560763 45.482813 134.560763 
z
" style="fill: #ffffff; opacity: 0.8; stroke: #cccccc; stroke-linejoin: miter"/>
    </g>
    <g id="line2d_48">
     <path d="M 47.482813 124.981075 
L 57.482813 124.981075 
L 67.482813 124.981075 
" style="fill: none; stroke: #000000; stroke-width: 0.5; stroke-linecap: square"/>
    </g>
    <g id="text_14">
     <!-- T -->
     <g transform="translate(75.482813 128.481075) scale(0.1 -0.1)">
      <defs>
       <path id="DejaVuSans-54" d="M -19 4666 
L 3928 4666 
L 3928 4134 
L 2272 4134 
L 2272 0 
L 1638 0 
L 1638 4134 
L -19 4134 
L -19 4666 
z
" transform="scale(0.015625)"/>
      </defs>
      <use xlink:href="#DejaVuSans-54"/>
     </g>
    </g>
   </g>
  </g>
  <g id="axes_3">
   <g id="patch_14">
    <path d="M 38.482813 315.162638 
L 596.482813 315.162638 
L 596.482813 213.522638 
L 38.482813 213.522638 
z
" style="fill: #ffffff"/>
   </g>
   <g id="matplotlib.axis_5">
    <g id="xtick_15">
     <g id="line2d_49">
      <path d="M 38.482813 315.162638 
L 38.482813 213.522638 
" clip-path="url(#p93b9bd083c)" style="fill: none; stroke: #b0b0b0; stroke-width: 0.8; stroke-linecap: square"/>
     </g>
     <g id="line2d_50">
      <g>
       <use xlink:href="#m3fdb8398fe" x="38.482813" y="315.162638" style="stroke: #000000; stroke-width: 0.8"/>
      </g>
     </g>
     <g id="text_15">
      <!-- 0 -->
      <g transform="translate(35.301563 329.761075) scale(0.1 -0.1)">
       <use xlink:href="#DejaVuSans-30"/>
      </g>
     </g>
    </g>
    <g id="xtick_16">
     <g id="line2d_51">
      <path d="M 118.254078 315.162638 
L 118.254078 213.522638 
" clip-path="url(#p93b9bd083c)" style="fill: none; stroke: #b0b0b0; stroke-width: 0.8; stroke-linecap: square"/>
     </g>
     <g id="line2d_52">
      <g>
       <use xlink:href="#m3fdb8398fe" x="118.254078" y="315.162638" style="stroke: #000000; stroke-width: 0.8"/>
      </g>
     </g>
     <g id="text_16">
      <!-- 20 -->
      <g transform="translate(111.891578 329.761075) scale(0.1 -0.1)">
       <use xlink:href="#DejaVuSans-32"/>
       <use xlink:href="#DejaVuSans-30" transform="translate(63.623047 0)"/>
      </g>
     </g>
    </g>
    <g id="xtick_17">
     <g id="line2d_53">
      <path d="M 198.025343 315.162638 
L 198.025343 213.522638 
" clip-path="url(#p93b9bd083c)" style="fill: none; stroke: #b0b0b0; stroke-width: 0.8; stroke-linecap: square"/>
     </g>
     <g id="line2d_54">
      <g>
       <use xlink:href="#m3fdb8398fe" x="198.025343" y="315.162638" style="stroke: #000000; stroke-width: 0.8"/>
      </g>
     </g>
     <g id="text_17">
      <!-- 40 -->
      <g transform="translate(191.662843 329.761075) scale(0.1 -0.1)">
       <use xlink:href="#DejaVuSans-34"/>
       <use xlink:href="#DejaVuSans-30" transform="translate(63.623047 0)"/>
      </g>
     </g>
    </g>
    <g id="xtick_18">
     <g id="line2d_55">
      <path d="M 277.796608 315.162638 
L 277.796608 213.522638 
" clip-path="url(#p93b9bd083c)" style="fill: none; stroke: #b0b0b0; stroke-width: 0.8; stroke-linecap: square"/>
     </g>
     <g id="line2d_56">
      <g>
       <use xlink:href="#m3fdb8398fe" x="277.796608" y="315.162638" style="stroke: #000000; stroke-width: 0.8"/>
      </g>
     </g>
     <g id="text_18">
      <!-- 60 -->
      <g transform="translate(271.434108 329.761075) scale(0.1 -0.1)">
       <defs>
        <path id="DejaVuSans-36" d="M 2113 2584 
Q 1688 2584 1439 2293 
Q 1191 2003 1191 1497 
Q 1191 994 1439 701 
Q 1688 409 2113 409 
Q 2538 409 2786 701 
Q 3034 994 3034 1497 
Q 3034 2003 2786 2293 
Q 2538 2584 2113 2584 
z
M 3366 4563 
L 3366 3988 
Q 3128 4100 2886 4159 
Q 2644 4219 2406 4219 
Q 1781 4219 1451 3797 
Q 1122 3375 1075 2522 
Q 1259 2794 1537 2939 
Q 1816 3084 2150 3084 
Q 2853 3084 3261 2657 
Q 3669 2231 3669 1497 
Q 3669 778 3244 343 
Q 2819 -91 2113 -91 
Q 1303 -91 875 529 
Q 447 1150 447 2328 
Q 447 3434 972 4092 
Q 1497 4750 2381 4750 
Q 2619 4750 2861 4703 
Q 3103 4656 3366 4563 
z
" transform="scale(0.015625)"/>
       </defs>
       <use xlink:href="#DejaVuSans-36"/>
       <use xlink:href="#DejaVuSans-30" transform="translate(63.623047 0)"/>
      </g>
     </g>
    </g>
    <g id="xtick_19">
     <g id="line2d_57">
      <path d="M 357.567873 315.162638 
L 357.567873 213.522638 
" clip-path="url(#p93b9bd083c)" style="fill: none; stroke: #b0b0b0; stroke-width: 0.8; stroke-linecap: square"/>
     </g>
     <g id="line2d_58">
      <g>
       <use xlink:href="#m3fdb8398fe" x="357.567873" y="315.162638" style="stroke: #000000; stroke-width: 0.8"/>
      </g>
     </g>
     <g id="text_19">
      <!-- 80 -->
      <g transform="translate(351.205373 329.761075) scale(0.1 -0.1)">
       <defs>
        <path id="DejaVuSans-38" d="M 2034 2216 
Q 1584 2216 1326 1975 
Q 1069 1734 1069 1313 
Q 1069 891 1326 650 
Q 1584 409 2034 409 
Q 2484 409 2743 651 
Q 3003 894 3003 1313 
Q 3003 1734 2745 1975 
Q 2488 2216 2034 2216 
z
M 1403 2484 
Q 997 2584 770 2862 
Q 544 3141 544 3541 
Q 544 4100 942 4425 
Q 1341 4750 2034 4750 
Q 2731 4750 3128 4425 
Q 3525 4100 3525 3541 
Q 3525 3141 3298 2862 
Q 3072 2584 2669 2484 
Q 3125 2378 3379 2068 
Q 3634 1759 3634 1313 
Q 3634 634 3220 271 
Q 2806 -91 2034 -91 
Q 1263 -91 848 271 
Q 434 634 434 1313 
Q 434 1759 690 2068 
Q 947 2378 1403 2484 
z
M 1172 3481 
Q 1172 3119 1398 2916 
Q 1625 2713 2034 2713 
Q 2441 2713 2670 2916 
Q 2900 3119 2900 3481 
Q 2900 3844 2670 4047 
Q 2441 4250 2034 4250 
Q 1625 4250 1398 4047 
Q 1172 3844 1172 3481 
z
" transform="scale(0.015625)"/>
       </defs>
       <use xlink:href="#DejaVuSans-38"/>
       <use xlink:href="#DejaVuSans-30" transform="translate(63.623047 0)"/>
      </g>
     </g>
    </g>
    <g id="xtick_20">
     <g id="line2d_59">
      <path d="M 437.339138 315.162638 
L 437.339138 213.522638 
" clip-path="url(#p93b9bd083c)" style="fill: none; stroke: #b0b0b0; stroke-width: 0.8; stroke-linecap: square"/>
     </g>
     <g id="line2d_60">
      <g>
       <use xlink:href="#m3fdb8398fe" x="437.339138" y="315.162638" style="stroke: #000000; stroke-width: 0.8"/>
      </g>
     </g>
     <g id="text_20">
      <!-- 100 -->
      <g transform="translate(427.795388 329.761075) scale(0.1 -0.1)">
       <use xlink:href="#DejaVuSans-31"/>
       <use xlink:href="#DejaVuSans-30" transform="translate(63.623047 0)"/>
       <use xlink:href="#DejaVuSans-30" transform="translate(127.246094 0)"/>
      </g>
     </g>
    </g>
    <g id="xtick_21">
     <g id="line2d_61">
      <path d="M 517.110404 315.162638 
L 517.110404 213.522638 
" clip-path="url(#p93b9bd083c)" style="fill: none; stroke: #b0b0b0; stroke-width: 0.8; stroke-linecap: square"/>
     </g>
     <g id="line2d_62">
      <g>
       <use xlink:href="#m3fdb8398fe" x="517.110404" y="315.162638" style="stroke: #000000; stroke-width: 0.8"/>
      </g>
     </g>
     <g id="text_21">
      <!-- 120 -->
      <g transform="translate(507.566654 329.761075) scale(0.1 -0.1)">
       <use xlink:href="#DejaVuSans-31"/>
       <use xlink:href="#DejaVuSans-32" transform="translate(63.623047 0)"/>
       <use xlink:href="#DejaVuSans-30" transform="translate(127.246094 0)"/>
      </g>
     </g>
    </g>
   </g>
   <g id="matplotlib.axis_6">
    <g id="ytick_9">
     <g id="line2d_63">
      <path d="M 38.482813 312.137179 
L 596.482813 312.137179 
" clip-path="url(#p93b9bd083c)" style="fill: none; stroke: #b0b0b0; stroke-width: 0.8; stroke-linecap: square"/>
     </g>
     <g id="line2d_64">
      <g>
       <use xlink:href="#m311238d34d" x="38.482813" y="312.137179" style="stroke: #000000; stroke-width: 0.8"/>
      </g>
     </g>
     <g id="text_22">
      <!-- −0.2 -->
      <g transform="translate(7.2 315.936397) scale(0.1 -0.1)">
       <use xlink:href="#DejaVuSans-2212"/>
       <use xlink:href="#DejaVuSans-30" transform="translate(83.789062 0)"/>
       <use xlink:href="#DejaVuSans-2e" transform="translate(147.412109 0)"/>
       <use xlink:href="#DejaVuSans-32" transform="translate(179.199219 0)"/>
      </g>
     </g>
    </g>
    <g id="ytick_10">
     <g id="line2d_65">
      <path d="M 38.482813 286.571119 
L 596.482813 286.571119 
" clip-path="url(#p93b9bd083c)" style="fill: none; stroke: #b0b0b0; stroke-width: 0.8; stroke-linecap: square"/>
     </g>
     <g id="line2d_66">
      <g>
       <use xlink:href="#m311238d34d" x="38.482813" y="286.571119" style="stroke: #000000; stroke-width: 0.8"/>
      </g>
     </g>
     <g id="text_23">
      <!-- −0.1 -->
      <g transform="translate(7.2 290.370338) scale(0.1 -0.1)">
       <use xlink:href="#DejaVuSans-2212"/>
       <use xlink:href="#DejaVuSans-30" transform="translate(83.789062 0)"/>
       <use xlink:href="#DejaVuSans-2e" transform="translate(147.412109 0)"/>
       <use xlink:href="#DejaVuSans-31" transform="translate(179.199219 0)"/>
      </g>
     </g>
    </g>
    <g id="ytick_11">
     <g id="line2d_67">
      <path d="M 38.482813 261.005059 
L 596.482813 261.005059 
" clip-path="url(#p93b9bd083c)" style="fill: none; stroke: #b0b0b0; stroke-width: 0.8; stroke-linecap: square"/>
     </g>
     <g id="line2d_68">
      <g>
       <use xlink:href="#m311238d34d" x="38.482813" y="261.005059" style="stroke: #000000; stroke-width: 0.8"/>
      </g>
     </g>
     <g id="text_24">
      <!-- 0.0 -->
      <g transform="translate(15.579688 264.804278) scale(0.1 -0.1)">
       <use xlink:href="#DejaVuSans-30"/>
       <use xlink:href="#DejaVuSans-2e" transform="translate(63.623047 0)"/>
       <use xlink:href="#DejaVuSans-30" transform="translate(95.410156 0)"/>
      </g>
     </g>
    </g>
    <g id="ytick_12">
     <g id="line2d_69">
      <path d="M 38.482813 235.439 
L 596.482813 235.439 
" clip-path="url(#p93b9bd083c)" style="fill: none; stroke: #b0b0b0; stroke-width: 0.8; stroke-linecap: square"/>
     </g>
     <g id="line2d_70">
      <g>
       <use xlink:href="#m311238d34d" x="38.482813" y="235.439" style="stroke: #000000; stroke-width: 0.8"/>
      </g>
     </g>
     <g id="text_25">
      <!-- 0.1 -->
      <g transform="translate(15.579688 239.238218) scale(0.1 -0.1)">
       <use xlink:href="#DejaVuSans-30"/>
       <use xlink:href="#DejaVuSans-2e" transform="translate(63.623047 0)"/>
       <use xlink:href="#DejaVuSans-31" transform="translate(95.410156 0)"/>
      </g>
     </g>
    </g>
   </g>
   <g id="line2d_71">
    <path d="M 38.482813 261.005059 
L 147.769446 260.993421 
L 148.567158 260.185304 
L 150.162584 260.452358 
L 150.960296 258.504733 
L 151.359153 258.47515 
L 151.758009 258.773296 
L 152.156865 258.57977 
L 152.555722 259.240892 
L 152.954578 257.131901 
L 153.353434 260.945488 
L 153.752291 267.84358 
L 154.151147 262.835785 
L 154.550003 261.112002 
L 154.94886 261.590987 
L 155.347716 261.563326 
L 155.746572 261.21847 
L 156.145429 261.999403 
L 156.544285 263.686571 
L 156.943141 262.759815 
L 157.341998 261.156337 
L 157.740854 260.558545 
L 158.13971 261.115811 
L 158.538567 260.471237 
L 158.937423 258.823277 
L 159.336279 261.931127 
L 159.735136 266.345157 
L 160.133992 262.899738 
L 160.532848 261.031948 
L 160.931705 261.537608 
L 161.330561 261.492813 
L 161.729417 261.327562 
L 162.128274 262.242956 
L 162.52713 261.812247 
L 162.925986 261.942466 
L 163.324843 261.941432 
L 163.723699 255.772852 
L 164.122555 256.440634 
L 164.521411 259.774662 
L 164.920268 259.81222 
L 166.116837 262.123524 
L 166.515693 260.938356 
L 166.914549 261.224929 
L 167.313406 260.845606 
L 167.712262 262.011804 
L 168.111118 264.620819 
L 168.509975 263.426181 
L 168.908831 261.583091 
L 169.706544 259.8759 
L 170.1054 259.206527 
L 170.504256 259.745888 
L 170.903113 260.545476 
L 171.301969 262.016509 
L 171.700825 262.834039 
L 172.498538 263.377716 
L 172.897394 262.208679 
L 173.296251 260.60704 
L 173.695107 259.517738 
L 174.093963 259.392083 
L 174.49282 259.468438 
L 174.891676 261.055666 
L 175.689389 262.659656 
L 176.088245 262.692523 
L 176.487101 262.128358 
L 176.885958 259.676645 
L 177.284814 259.530626 
L 177.68367 261.979256 
L 178.082527 261.574421 
L 178.481383 260.772799 
L 178.880239 262.187825 
L 179.279096 262.905987 
L 179.677952 261.567988 
L 180.076808 260.936842 
L 180.475665 259.556501 
L 180.874521 260.72111 
L 181.273377 263.930785 
L 181.672234 261.476958 
L 182.07109 260.103095 
L 182.469946 260.375078 
L 182.868802 257.656702 
L 183.267659 257.30949 
L 183.666515 261.002152 
L 184.065371 260.389584 
L 184.464228 261.484857 
L 184.863084 263.874504 
L 185.26194 261.796827 
L 185.660797 261.212971 
L 186.458509 263.213419 
L 186.857366 261.12031 
L 187.256222 257.413278 
L 187.655078 259.612593 
L 188.053935 261.099218 
L 188.452791 257.695282 
L 188.851647 258.765958 
L 189.250504 258.673867 
L 189.64936 259.848585 
L 190.048216 263.781393 
L 190.447073 264.226636 
L 190.845929 260.202216 
L 191.244785 259.875463 
L 191.643642 262.211717 
L 192.042498 262.101313 
L 192.441354 258.649531 
L 192.840211 261.083737 
L 193.239067 262.49669 
L 193.637923 257.947796 
L 194.03678 258.694317 
L 194.435636 258.046958 
L 194.834492 259.016207 
L 195.233349 262.353741 
L 195.632205 261.298661 
L 196.031061 261.550032 
L 196.429918 262.393462 
L 196.828774 262.722909 
L 197.22763 261.271738 
L 197.626487 257.107579 
L 198.025343 259.066304 
L 198.424199 262.744312 
L 198.823056 260.90176 
L 199.221912 261.539533 
L 199.620768 261.187057 
L 200.019625 259.539791 
L 200.418481 260.838354 
L 200.817337 260.168571 
L 201.216193 261.315901 
L 201.61505 263.184835 
L 202.013906 262.608669 
L 202.412762 262.764291 
L 203.210475 259.266095 
L 203.609331 261.687739 
L 204.008188 261.64212 
L 204.407044 259.841448 
L 205.204757 263.506669 
L 205.603613 260.366847 
L 206.002469 259.761118 
L 206.401326 261.354358 
L 207.199038 262.962262 
L 207.597895 261.735313 
L 207.996751 262.434668 
L 208.395607 262.413993 
L 208.794464 259.335497 
L 209.19332 260.282656 
L 209.592176 261.70993 
L 209.991033 260.568084 
L 210.389889 262.285565 
L 210.788745 261.860778 
L 211.187602 260.681257 
L 211.586458 261.116181 
L 211.985314 260.672924 
L 212.384171 260.792373 
L 212.783027 260.610761 
L 213.181883 262.167518 
L 213.58074 262.261175 
L 213.979596 260.421639 
L 214.378452 260.111881 
L 214.777309 260.766676 
L 215.176165 260.414461 
L 215.575021 260.242984 
L 215.973878 260.337562 
L 216.372734 261.509155 
L 217.170447 260.233187 
L 217.569303 260.542502 
L 217.968159 259.882899 
L 218.367016 260.768267 
L 218.765872 260.498817 
L 219.164728 261.154322 
L 219.563584 261.285264 
L 220.361297 260.895282 
L 220.760153 259.684629 
L 221.15901 260.479482 
L 221.557866 260.209597 
L 221.956722 260.512955 
L 222.355579 261.114253 
L 222.754435 260.690766 
L 223.552148 260.841442 
L 223.951004 260.92596 
L 224.34986 260.87127 
L 224.748717 260.582783 
L 225.147573 261.640731 
L 225.546429 261.649576 
L 225.945286 260.6808 
L 226.344142 261.269798 
L 226.742998 260.880079 
L 227.141855 260.992201 
L 227.540711 262.218852 
L 227.939567 262.343538 
L 228.338424 261.161601 
L 228.73728 260.840607 
L 229.136136 262.327571 
L 229.534993 262.043228 
L 229.933849 260.240192 
L 230.731562 262.187734 
L 231.130418 261.400081 
L 231.529274 262.062405 
L 231.928131 262.188464 
L 232.326987 261.279497 
L 232.725843 261.582548 
L 233.1247 262.129036 
L 233.523556 261.559702 
L 233.922412 260.586035 
L 234.321269 260.800048 
L 234.720125 260.47454 
L 235.118981 260.341227 
L 235.517838 260.621264 
L 236.31555 259.759299 
L 236.714406 259.538607 
L 237.113263 258.704759 
L 237.512119 258.7684 
L 237.910975 260.196599 
L 238.309832 257.4393 
L 238.708688 258.864015 
L 239.107544 262.475583 
L 239.506401 259.239178 
L 239.905257 257.608555 
L 240.304113 260.417786 
L 240.70297 261.712711 
L 241.101826 261.032808 
L 241.500682 261.687373 
L 241.899539 263.216051 
L 242.298395 262.508202 
L 242.697251 260.866289 
L 243.096108 261.759634 
L 243.494964 263.11298 
L 243.89382 262.68556 
L 244.292677 262.524233 
L 244.691533 263.524464 
L 245.090389 262.739782 
L 245.489246 261.659018 
L 245.888102 262.663125 
L 246.685815 261.192601 
L 247.084671 261.758376 
L 247.882384 259.913719 
L 248.28124 260.576581 
L 248.680096 260.017597 
L 249.078953 258.804969 
L 249.477809 259.557401 
L 249.876665 261.230617 
L 250.275522 259.745335 
L 250.674378 258.854677 
L 251.073234 259.770371 
L 251.472091 258.714998 
L 251.870947 259.34443 
L 252.269803 263.899377 
L 252.66866 262.2345 
L 253.067516 258.876751 
L 253.466372 262.791143 
L 253.865229 264.140482 
L 254.264085 260.520445 
L 254.662941 260.106024 
L 255.061797 264.209833 
L 255.460654 265.397188 
L 256.258366 260.177205 
L 257.056079 265.212462 
L 257.454935 261.84105 
L 257.853792 260.772337 
L 258.252648 260.816234 
L 258.651504 263.354478 
L 259.050361 262.18257 
L 259.449217 264.885296 
L 259.848073 261.965887 
L 260.24693 255.472151 
L 260.645786 273.866333 
L 261.044642 270.485876 
L 261.443499 253.534486 
L 262.241211 267.367982 
L 262.640068 260.704653 
L 263.038924 256.365611 
L 263.43778 262.467722 
L 263.836637 260.735562 
L 264.235493 256.899216 
L 264.634349 261.510577 
L 265.432062 254.078085 
L 265.830918 261.768847 
L 266.229775 262.976153 
L 266.628631 255.336814 
L 267.027487 254.143879 
L 267.426344 269.462924 
L 267.8252 267.295359 
L 268.622913 249.306907 
L 269.021769 250.512417 
L 269.420625 281.030582 
L 269.819482 282.077737 
L 271.016051 247.478026 
L 271.414907 256.44235 
L 271.813763 273.430267 
L 272.21262 268.272401 
L 272.611476 257.369819 
L 273.010332 267.056465 
L 273.409188 267.509568 
L 273.808045 252.980275 
L 274.206901 250.30191 
L 274.605757 260.517588 
L 275.004614 248.57208 
L 275.40347 244.405258 
L 276.201183 288.675827 
L 276.600039 269.364662 
L 276.998895 244.148146 
L 277.397752 235.400534 
L 277.796608 242.032905 
L 278.195464 257.313552 
L 278.594321 263.853441 
L 278.993177 280.969967 
L 279.392033 284.600638 
L 280.189746 256.765286 
L 280.588602 249.717835 
L 280.987459 266.562896 
L 281.386315 264.470037 
L 281.785171 238.184125 
L 282.184028 251.598007 
L 282.582884 255.392739 
L 283.380597 238.486163 
L 283.779453 241.203055 
L 284.178309 275.576885 
L 284.577166 290.961109 
L 284.976022 276.073565 
L 285.374878 253.66669 
L 285.773735 258.571373 
L 286.172591 276.726092 
L 286.571447 282.277086 
L 287.36916 241.272952 
L 287.768016 227.856961 
L 288.166873 225.286375 
L 288.964585 263.232416 
L 289.363442 262.522451 
L 289.762298 251.708563 
L 290.161154 275.958205 
L 290.56001 285.964477 
L 290.958867 269.91779 
L 291.357723 259.550879 
L 291.756579 259.867011 
L 292.155436 253.50147 
L 292.554292 263.252554 
L 292.953148 252.290288 
L 293.352005 235.923926 
L 293.750861 261.460969 
L 294.149717 275.708816 
L 294.548574 275.567621 
L 294.94743 268.017615 
L 295.346286 273.787047 
L 295.745143 264.546977 
L 296.143999 237.37526 
L 296.542855 236.845116 
L 296.941712 254.434675 
L 297.340568 262.762239 
L 297.739424 273.743423 
L 298.138281 290.714727 
L 298.537137 272.659599 
L 298.935993 249.373188 
L 299.33485 256.926408 
L 299.733706 256.252233 
L 300.132562 253.871223 
L 300.531419 259.023835 
L 301.329131 259.839158 
L 301.727988 273.644932 
L 302.126844 282.549273 
L 302.5257 273.7404 
L 302.924557 260.058512 
L 303.323413 264.600836 
L 303.722269 265.655342 
L 304.121126 250.479664 
L 304.519982 265.602375 
L 304.918838 271.38733 
L 305.317695 265.59519 
L 305.716551 272.071817 
L 306.115407 282.269067 
L 306.91312 254.477626 
L 307.311976 259.054053 
L 307.710833 259.954677 
L 308.109689 253.217201 
L 308.508545 249.250053 
L 309.306258 276.797835 
L 309.705114 277.269868 
L 310.10397 272.928434 
L 310.502827 255.819686 
L 310.901683 248.662144 
L 311.300539 261.568269 
L 311.699396 258.061083 
L 312.098252 263.630703 
L 312.497108 259.324298 
L 312.895965 258.736544 
L 313.294821 269.168686 
L 314.092534 257.762094 
L 314.49139 258.693201 
L 314.890246 254.145675 
L 315.289103 251.307395 
L 315.687959 257.133499 
L 316.086815 255.803752 
L 316.884528 284.337321 
L 317.283384 278.236893 
L 318.081097 247.311061 
L 318.479953 250.754982 
L 318.87881 255.912416 
L 319.277666 247.040687 
L 319.676522 244.927553 
L 320.075379 241.328703 
L 320.474235 239.76001 
L 320.873091 236.161511 
L 321.271948 235.732552 
L 321.670804 238.996908 
L 322.06966 235.527138 
L 322.468517 243.799065 
L 322.867373 257.472095 
L 323.266229 263.82874 
L 323.665086 277.428482 
L 324.063942 296.984693 
L 324.462798 294.278008 
L 324.861655 275.745882 
L 325.260511 267.64333 
L 325.659367 267.842901 
L 326.058224 263.963808 
L 326.855936 254.804584 
L 327.254792 244.359013 
L 327.653649 238.213644 
L 328.052505 240.698794 
L 328.451361 240.661329 
L 328.850218 243.141451 
L 329.249074 252.653023 
L 329.64793 266.510601 
L 330.046787 275.225006 
L 330.844499 302.240538 
L 331.243356 302.286375 
L 331.642212 296.565888 
L 332.041068 282.54542 
L 332.439925 273.25587 
L 332.838781 278.737777 
L 333.237637 279.436547 
L 333.636494 274.271618 
L 334.03535 267.113438 
L 334.434206 262.696834 
L 335.231919 260.565299 
L 336.029632 262.622698 
L 336.428488 261.860807 
L 336.827344 264.867219 
L 337.226201 263.44868 
L 337.625057 255.099211 
L 338.023913 253.466589 
L 338.42277 245.730034 
L 338.821626 232.486712 
L 339.220482 231.40261 
L 340.018195 251.931294 
L 340.417051 255.488376 
L 340.815908 254.63628 
L 341.214764 250.568819 
L 341.61362 248.289517 
L 342.012477 253.501496 
L 342.411333 254.564581 
L 342.810189 247.70133 
L 343.209046 247.783028 
L 343.607902 250.372746 
L 344.006758 243.647452 
L 344.405615 244.017663 
L 344.804471 249.08011 
L 345.203327 249.626566 
L 345.602183 254.026909 
L 346.399896 273.833642 
L 346.798752 279.333764 
L 347.197609 281.314208 
L 347.596465 274.131944 
L 347.995321 263.502891 
L 348.394178 267.654387 
L 348.793034 277.308741 
L 349.19189 274.999184 
L 349.590747 275.63921 
L 349.989603 279.916772 
L 350.388459 275.475836 
L 350.787316 277.602351 
L 351.186172 280.586218 
L 351.585028 275.195229 
L 351.983885 273.933863 
L 352.382741 273.391606 
L 353.180454 259.423955 
L 353.57931 257.246593 
L 354.377023 243.386069 
L 354.775879 247.736688 
L 355.174735 256.264313 
L 355.573592 257.379596 
L 355.972448 255.970345 
L 356.770161 242.604646 
L 357.169017 246.489484 
L 357.567873 248.78511 
L 357.96673 245.941626 
L 359.163299 251.739183 
L 359.961011 260.519904 
L 360.359868 264.706141 
L 360.758724 267.081535 
L 361.556437 270.067909 
L 362.753005 264.545684 
L 363.151862 265.530255 
L 363.550718 274.288217 
L 363.949574 278.126059 
L 365.146143 269.333629 
L 365.545 269.431654 
L 365.943856 267.919514 
L 366.342712 263.077967 
L 367.140425 256.447148 
L 367.539281 254.797539 
L 367.938138 255.52477 
L 368.336994 255.15582 
L 368.73585 255.966965 
L 369.134707 254.166207 
L 369.533563 251.573567 
L 369.932419 251.189817 
L 370.730132 246.798518 
L 371.128988 247.493114 
L 371.527845 251.065063 
L 371.926701 256.119116 
L 372.325557 257.214323 
L 372.724414 257.449991 
L 373.522126 264.807053 
L 373.920983 266.362372 
L 374.319839 265.3542 
L 374.718695 264.711387 
L 375.117552 267.889826 
L 376.314121 273.514128 
L 376.712977 273.789199 
L 377.111833 273.130678 
L 378.308402 267.132555 
L 378.707259 263.230195 
L 379.106115 261.471435 
L 379.504971 260.672051 
L 379.903828 258.73481 
L 380.302684 258.168662 
L 381.499253 253.009403 
L 381.898109 249.804085 
L 382.296965 249.157544 
L 382.695822 249.301821 
L 383.094678 249.932584 
L 383.892391 253.152124 
L 384.291247 256.097897 
L 384.690103 257.84729 
L 385.08896 258.978693 
L 385.487816 260.945631 
L 385.886672 261.707555 
L 387.083241 267.967537 
L 387.482098 270.63963 
L 387.880954 271.609593 
L 388.27981 272.060569 
L 388.678667 271.912987 
L 389.476379 269.299088 
L 390.274092 265.986409 
L 390.672948 264.794413 
L 391.470661 261.825229 
L 393.066086 252.488457 
L 393.464943 251.368967 
L 393.863799 250.817843 
L 394.262655 250.862563 
L 395.060368 252.709135 
L 396.256937 255.944272 
L 397.05465 259.670747 
L 398.251219 266.966491 
L 398.650075 268.750386 
L 399.048931 269.76747 
L 399.447787 270.294242 
L 399.846644 270.301002 
L 400.644356 269.589645 
L 401.043213 268.979896 
L 401.442069 268.023044 
L 401.840925 266.561079 
L 402.638638 262.054771 
L 403.436351 257.314672 
L 404.234063 254.042026 
L 404.63292 253.098538 
L 405.031776 252.46878 
L 405.430632 252.063513 
L 405.829489 251.879203 
L 406.228345 252.092029 
L 406.627201 252.879096 
L 407.026058 254.281311 
L 407.82377 258.456299 
L 409.020339 264.706403 
L 409.818052 267.645381 
L 410.615765 269.79498 
L 411.014621 270.330499 
L 411.413477 270.261598 
L 411.812334 269.545237 
L 412.21119 268.254569 
L 413.407759 262.680633 
L 415.003184 255.205721 
L 415.800897 252.493391 
L 416.199753 251.931594 
L 416.598609 251.992632 
L 416.997466 252.592191 
L 417.396322 253.624244 
L 418.194035 256.558403 
L 418.991747 260.308046 
L 420.188316 266.439192 
L 420.587173 267.977454 
L 420.986029 269.021452 
L 421.384885 269.562048 
L 421.783742 269.641065 
L 422.182598 269.304238 
L 422.581454 268.557523 
L 422.980311 267.409101 
L 423.778023 263.968486 
L 425.373449 255.928062 
L 426.171161 253.399415 
L 426.570018 252.705562 
L 426.968874 252.463166 
L 427.36773 252.724822 
L 427.766587 253.517676 
L 428.165443 254.791283 
L 428.963156 258.333324 
L 430.558581 266.073325 
L 431.356294 268.654525 
L 431.75515 269.260254 
L 432.154006 269.341729 
L 432.552863 268.913022 
L 432.951719 268.01899 
L 433.749432 265.087378 
L 436.142569 254.193506 
L 436.541426 253.296066 
L 436.940282 252.872022 
L 437.339138 252.953055 
L 437.737995 253.534208 
L 438.136851 254.586776 
L 438.934564 257.807503 
L 440.928845 267.061773 
L 441.327702 268.170886 
L 441.726558 268.815435 
L 442.125414 268.958628 
L 442.524271 268.586323 
L 442.923127 267.726758 
L 443.72084 264.79092 
L 445.715121 255.471249 
L 446.113978 254.251275 
L 446.512834 253.477215 
L 446.91169 253.204387 
L 447.310547 253.44677 
L 447.709403 254.191325 
L 448.108259 255.384613 
L 448.905972 258.781282 
L 450.501397 266.215864 
L 450.900254 267.471181 
L 451.29911 268.280359 
L 451.697966 268.592859 
L 452.096823 268.382713 
L 452.495679 267.670178 
L 452.894535 266.499506 
L 453.692248 263.138545 
L 455.287673 255.798366 
L 455.686529 254.586717 
L 456.085386 253.82491 
L 456.484242 253.569627 
L 456.883098 253.835191 
L 457.281955 254.607759 
L 457.680811 255.825657 
L 458.478524 259.236432 
L 459.675093 264.88719 
L 460.472805 267.465402 
L 460.871662 268.085282 
L 461.270518 268.192342 
L 461.669374 267.773584 
L 462.068231 266.863983 
L 462.865943 263.8639 
L 464.461369 256.539111 
L 464.860225 255.222572 
L 465.259081 254.340635 
L 465.657938 253.953436 
L 466.056794 254.094422 
L 466.45565 254.750516 
L 466.854507 255.873917 
L 467.652219 259.147197 
L 468.848788 264.676211 
L 469.646501 267.169761 
L 470.045357 267.738853 
L 470.444214 267.783547 
L 470.84307 267.305176 
L 471.241926 266.336387 
L 472.039639 263.269705 
L 473.635064 256.260326 
L 474.03392 255.137381 
L 474.432777 254.478556 
L 474.831633 254.340119 
L 475.230489 254.731197 
L 475.629346 255.621975 
L 476.427058 258.57318 
L 478.022484 265.502468 
L 478.42134 266.620046 
L 478.820196 267.276231 
L 479.219053 267.408814 
L 479.617909 267.011039 
L 480.016765 266.11436 
L 480.814478 263.16464 
L 482.409903 256.394179 
L 482.80876 255.365005 
L 483.207616 254.815801 
L 483.606472 254.794092 
L 484.005329 255.299642 
L 484.404185 256.291307 
L 485.201898 259.333286 
L 486.398467 264.493942 
L 486.797323 265.782506 
L 487.196179 266.643643 
L 487.595036 267.003636 
L 487.993892 266.825145 
L 488.392748 266.12612 
L 488.791604 264.960752 
L 489.589317 261.696376 
L 490.785886 256.797455 
L 491.184742 255.779522 
L 491.583599 255.254907 
L 491.982455 255.263992 
L 492.381311 255.799407 
L 492.780168 256.798207 
L 493.57788 259.783913 
L 494.774449 264.547405 
L 495.173306 265.636308 
L 495.572162 266.290778 
L 495.971018 266.451305 
L 496.369875 266.103374 
L 496.768731 265.262221 
L 497.566444 262.445584 
L 498.763013 257.471702 
L 499.161869 256.281953 
L 499.560725 255.573628 
L 499.959582 255.428972 
L 500.358438 255.880187 
L 500.757294 256.884453 
L 501.555007 260.091921 
L 502.35272 263.65628 
L 502.751576 265.059435 
L 503.150432 265.970285 
L 503.549289 266.293014 
L 503.948145 265.990282 
L 504.347001 265.110444 
L 505.144714 262.136643 
L 505.942427 258.832409 
L 506.341283 257.556455 
L 506.740139 256.744296 
L 507.138995 256.467498 
L 507.537852 256.743239 
L 507.936708 257.507179 
L 508.734421 259.990401 
L 509.532133 262.622258 
L 509.93099 263.592082 
L 510.329846 264.183045 
L 510.728702 264.3506 
L 511.127559 264.098759 
L 511.526415 263.498183 
L 512.722984 260.669882 
L 513.520697 259.155597 
L 513.919553 258.777423 
L 514.318409 258.692596 
L 514.717266 258.886654 
L 515.514978 259.885152 
L 516.711547 261.711939 
L 517.110404 262.116875 
L 517.50926 262.340082 
L 517.908116 262.383216 
L 518.306973 262.256862 
L 519.104685 261.642565 
L 520.301254 260.555454 
L 521.098967 260.193534 
L 521.89668 260.238237 
L 522.694392 260.580723 
L 524.289818 261.317499 
L 525.08753 261.414339 
L 526.284099 261.203687 
L 527.879524 260.817414 
L 529.076093 260.776862 
L 533.862369 261.026183 
L 536.654364 260.942173 
L 543.434921 260.982895 
L 596.482813 261.053168 
L 596.482813 261.053168 
" clip-path="url(#p93b9bd083c)" style="fill: none; stroke: #000000; stroke-width: 0.5; stroke-linecap: square"/>
   </g>
   <g id="LineCollection_5">
    <path d="M 148.152075 306.136375 
L 148.152075 221.436375 
" clip-path="url(#p93b9bd083c)" style="fill: none; stroke: #0000ff; stroke-width: 1.5"/>
   </g>
   <g id="LineCollection_6">
    <path d="M 229.035211 306.136375 
L 229.035211 221.436375 
" clip-path="url(#p93b9bd083c)" style="fill: none; stroke: #ff0000; stroke-width: 1.5"/>
   </g>
   <g id="patch_15">
    <path d="M 38.482813 315.162638 
L 38.482813 213.522638 
" style="fill: none; stroke: #000000; stroke-width: 0.8; stroke-linejoin: miter; stroke-linecap: square"/>
   </g>
   <g id="patch_16">
    <path d="M 596.482813 315.162638 
L 596.482813 213.522638 
" style="fill: none; stroke: #000000; stroke-width: 0.8; stroke-linejoin: miter; stroke-linecap: square"/>
   </g>
   <g id="patch_17">
    <path d="M 38.482813 315.162638 
L 596.482813 315.162638 
" style="fill: none; stroke: #000000; stroke-width: 0.8; stroke-linejoin: miter; stroke-linecap: square"/>
   </g>
   <g id="patch_18">
    <path d="M 38.482813 213.522638 
L 596.482813 213.522638 
" style="fill: none; stroke: #000000; stroke-width: 0.8; stroke-linejoin: miter; stroke-linecap: square"/>
   </g>
   <g id="text_26">
    <!-- P -->
    <g style="fill: #0000ff" transform="translate(148.152075 229.034812) scale(0.1 -0.1)">
     <use xlink:href="#DejaVuSans-50"/>
    </g>
   </g>
   <g id="text_27">
    <!-- S -->
    <g style="fill: #ff0000" transform="translate(229.035211 229.034812) scale(0.1 -0.1)">
     <use xlink:href="#DejaVuSans-53"/>
    </g>
   </g>
   <g id="legend_3">
    <g id="patch_19">
     <path d="M 45.482813 236.200763 
L 84.332813 236.200763 
Q 86.332813 236.200763 86.332813 234.200763 
L 86.332813 220.522638 
Q 86.332813 218.522638 84.332813 218.522638 
L 45.482813 218.522638 
Q 43.482813 218.522638 43.482813 220.522638 
L 43.482813 234.200763 
Q 43.482813 236.200763 45.482813 236.200763 
z
" style="fill: #ffffff; opacity: 0.8; stroke: #cccccc; stroke-linejoin: miter"/>
    </g>
    <g id="line2d_72">
     <path d="M 47.482813 226.621075 
L 57.482813 226.621075 
L 67.482813 226.621075 
" style="fill: none; stroke: #000000; stroke-width: 0.5; stroke-linecap: square"/>
    </g>
    <g id="text_28">
     <!-- Z -->
     <g transform="translate(75.482813 230.121075) scale(0.1 -0.1)">
      <defs>
       <path id="DejaVuSans-5a" d="M 359 4666 
L 4025 4666 
L 4025 4184 
L 1075 531 
L 4097 531 
L 4097 0 
L 288 0 
L 288 481 
L 3238 4134 
L 359 4134 
L 359 4666 
z
" transform="scale(0.015625)"/>
      </defs>
      <use xlink:href="#DejaVuSans-5a"/>
     </g>
    </g>
   </g>
  </g>
 </g>
 <defs>
  <clipPath id="p2ab1c9094c">
   <rect x="38.482813" y="10.242638" width="558" height="101.64"/>
  </clipPath>
  <clipPath id="pc67b7de611">
   <rect x="38.482813" y="111.882638" width="558" height="101.64"/>
  </clipPath>
  <clipPath id="p93b9bd083c">
   <rect x="38.482813" y="213.522638" width="558" height="101.64"/>
  </clipPath>
 </defs>
</svg>
